<svg width="11" height="22" viewBox="0 0 11 22" fill="none" xmlns="http://www.w3.org/2000/svg">
<path d="M10.9553 10.5994C10.9561 11.0106 10.8126 11.409 10.5497 11.7256L3.49636 20.5243C3.19705 20.8837 2.76695 21.1097 2.30068 21.1526C1.83441 21.1955 1.37016 21.0518 1.01005 20.7531C0.649952 20.4544 0.423498 20.0252 0.380508 19.5599C0.337519 19.0945 0.481515 18.6312 0.780821 18.2719L6.91722 10.5994L1.06295 2.92692C0.916482 2.74692 0.807099 2.53981 0.741095 2.31748C0.67509 2.09516 0.653764 1.86201 0.678344 1.63143C0.702923 1.40086 0.772922 1.1774 0.884319 0.973911C0.995715 0.770422 1.14631 0.590908 1.32745 0.445688C1.50876 0.284532 1.72147 0.162477 1.95224 0.0871734C2.18301 0.0118694 2.42688 -0.0150586 2.66857 0.00806989C2.91026 0.0311984 3.14456 0.103886 3.35679 0.221582C3.56902 0.339279 3.7546 0.499451 3.90192 0.692055L10.6555 9.49075C10.8768 9.81645 10.9824 10.2068 10.9553 10.5994Z" fill="#9CA0B2"/>
</svg>
