<svg width="23" height="19" viewBox="0 0 23 19" fill="none" xmlns="http://www.w3.org/2000/svg">
<path d="M0.75 1.57626C0.75 1.10777 1.12477 0.727539 1.58654 0.727539H16.0865C16.5483 0.727539 16.9231 1.10777 16.9231 1.57626C16.9231 2.04476 16.5483 2.42499 16.0865 2.42499H1.58654C1.12477 2.42499 0.75 2.04476 0.75 1.57626ZM21.6635 8.64896H1.58654C1.12477 8.64896 0.75 9.02921 0.75 9.49766C0.75 9.96619 1.12477 10.3464 1.58654 10.3464H21.6635C22.1252 10.3464 22.5 9.96619 22.5 9.49766C22.5 9.02921 22.1252 8.64896 21.6635 8.64896ZM11.625 16.5704H1.58654C1.12477 16.5704 0.75 16.9506 0.75 17.4192C0.75 17.8876 1.12477 18.2679 1.58654 18.2679H11.625C12.0868 18.2679 12.4615 17.8876 12.4615 17.4192C12.4615 16.9506 12.0868 16.5704 11.625 16.5704Z" fill="white"/>
</svg>
