<svg width="37" height="37" viewBox="0 0 37 37" fill="none" xmlns="http://www.w3.org/2000/svg">
<path fill-rule="evenodd" clip-rule="evenodd" d="M12.7086 5.34131C13.5201 5.34131 14.178 5.9992 14.178 6.81075V8.2802H22.9947V6.81075C22.9947 5.9992 23.6526 5.34131 24.4641 5.34131C25.2757 5.34131 25.9336 5.9992 25.9336 6.81075V8.28024C26.6081 8.28065 27.1962 8.28481 27.6896 8.32512C28.2705 8.37258 28.8483 8.47738 29.4043 8.76068C30.2338 9.18332 30.9082 9.85771 31.3309 10.6872C31.6142 11.2432 31.7189 11.821 31.7664 12.4019C31.8114 12.9524 31.8114 13.6206 31.8113 14.3952V25.6763C31.8114 26.4509 31.8114 27.1192 31.7664 27.6696C31.7189 28.2505 31.6142 28.8283 31.3309 29.3843C30.9082 30.2138 30.2338 30.8882 29.4043 31.3108C28.8483 31.5941 28.2705 31.6989 27.6896 31.7464C27.1392 31.7914 26.4711 31.7913 25.6966 31.7913H25.6966H25.6965H11.4764H11.4764H11.4763C10.7018 31.7913 10.0334 31.7914 9.48308 31.7464C8.90215 31.6989 8.32433 31.5941 7.76832 31.3108C6.93884 30.8882 6.26445 30.2138 5.84181 29.3843C5.55851 28.8283 5.45372 28.2505 5.40625 27.6696C5.36128 27.1192 5.36131 26.451 5.36133 25.6764V25.6763V14.3952V14.3952C5.36131 13.6206 5.36128 12.9523 5.40625 12.4019C5.45372 11.821 5.55851 11.2432 5.84181 10.6872C6.26445 9.85771 6.93884 9.18332 7.76832 8.76068C8.32433 8.47738 8.90215 8.37258 9.48308 8.32512C9.97649 8.28481 10.5646 8.28065 11.2391 8.28024V6.81075C11.2391 5.9992 11.897 5.34131 12.7086 5.34131ZM14.178 15.6274C14.178 14.8159 14.8359 14.158 15.6474 14.158H18.5863C19.3979 14.158 20.0558 14.8159 20.0558 15.6274V22.9746H21.5252C22.3368 22.9746 22.9947 23.6325 22.9947 24.4441C22.9947 25.2556 22.3368 25.9135 21.5252 25.9135H18.5863H15.6474C14.8359 25.9135 14.178 25.2556 14.178 24.4441C14.178 23.6325 14.8359 22.9746 15.6474 22.9746H17.1169V17.0969H15.6474C14.8359 17.0969 14.178 16.439 14.178 15.6274Z" fill="#37AC4E"/>
</svg>
