<svg version="1.2" xmlns="http://www.w3.org/2000/svg" viewBox="0 0 86 86" width="86" height="86">
	<title>chat-svg</title>
	<defs>
		<linearGradient id="g1" x2="1" gradientUnits="userSpaceOnUse" gradientTransform="matrix(0,27.155,-27.155,0,37.148,26.04)">
			<stop offset="0" stop-color="#37ac4e"/>
			<stop offset="1" stop-color="#06ca2c"/>
		</linearGradient>
	</defs>
	<style>
		.s0 { fill: #ffffff } 
		.s1 { fill: #06ca2c } 
		.s2 { fill: url(#g1) } 
	</style>
	<g>
		<path class="s0" d="m43.3 85.6c-23.4 0-42.3-18.9-42.3-42.3 0-23.4 18.9-42.3 42.3-42.3 23.4 0 42.3 18.9 42.3 42.3 0 23.4-18.9 42.3-42.3 42.3z"/>
	</g>
	<path class="s1" d="m55.7 35.9v5c0 2.6-1.1 5.1-2.9 6.9-1.9 1.9-4.4 2.9-7 2.9h-2.9l-4.4 4.4c0.7 0.4 1.5 0.6 2.3 0.6h5l7.4 7.4v-7.4h4.9c1.3 0 2.6-0.6 3.5-1.5 0.9-0.9 1.5-2.2 1.5-3.5v-9.8c0-1.4-0.6-2.6-1.5-3.5-0.9-1-2.2-1.5-3.5-1.5z"/>
	<path class="s2" d="m23.6 31c0-1.3 0.5-2.6 1.4-3.5 0.9-0.9 2.2-1.5 3.5-1.5h17.3c1.3 0 2.6 0.6 3.5 1.5 0.9 0.9 1.4 2.2 1.4 3.5v9.9c0 1.3-0.5 2.5-1.4 3.4-0.9 1-2.2 1.5-3.5 1.5h-4.9l-7.5 7.4v-7.4h-4.9c-1.3 0-2.6-0.5-3.5-1.5-0.9-0.9-1.4-2.1-1.4-3.4z"/>
</svg>