<svg xmlns="http://www.w3.org/2000/svg" width="50" height="50" viewBox="0 0 50 50"
fill="none">
<circle cx="24.5559" cy="24.5559" r="24.5559"
    fill="url(#paint0_linear_7978_38065)" />
<path fill-rule="evenodd" clip-rule="evenodd"
    d="M35.3167 33.8513C34.6276 35.9452 31.9279 36.99 29.9992 36.8158C27.365 36.5777 24.4987 35.1803 22.3229 33.6414C19.1247 31.3793 16.1289 27.8805 14.3832 24.1673C13.1494 21.5436 12.8726 18.3171 14.7076 15.9255C15.3862 15.0415 16.1214 14.5697 17.2227 14.5147C18.7526 14.4402 18.9669 15.3153 19.4923 16.6785C19.8837 17.698 20.406 18.7383 20.6977 19.7949C21.2439 21.7668 19.3345 21.8487 19.0934 23.4604C18.9446 24.4769 20.1754 25.8401 20.732 26.5649C21.8048 27.9764 23.1188 29.1871 24.6133 30.1411C25.4616 30.6754 26.8278 31.6383 27.7981 31.107C29.2923 30.2884 29.1524 27.7689 31.2404 28.6216C32.3223 29.0621 33.37 29.6976 34.4029 30.2542C35.9998 31.1129 35.9253 32.0029 35.3167 33.8513C35.7721 32.4702 34.8613 35.2324 35.3167 33.8513Z"
    fill="white" />
<defs>
    <linearGradient id="paint0_linear_7978_38065" x1="24.5559" y1="0"
        x2="24.5559" y2="49.1117" gradientUnits="userSpaceOnUse">
        <stop stop-color="#37AC4E" />
        <stop offset="1" stop-color="#06CA2C" />
    </linearGradient>
</defs>
</svg>