<svg xmlns="http://www.w3.org/2000/svg" width="50" height="50" viewBox="0 0 50 50"
fill="none">
<circle cx="24.5559" cy="24.6718" r="24.5559"
    fill="url(#paint0_linear_7978_38071)" />
<path
    d="M24.5554 14.6262C20.2414 14.6262 16.7422 17.9505 16.7422 22.0488C16.7422 27.6157 24.5554 35.8335 24.5554 35.8335C24.5554 35.8335 32.3686 27.6157 32.3686 22.0488C32.3686 17.9505 28.8694 14.6262 24.5554 14.6262ZM24.5554 24.6997C23.0151 24.6997 21.765 23.5121 21.765 22.0488C21.765 20.5855 23.0151 19.3979 24.5554 19.3979C26.0957 19.3979 27.3459 20.5855 27.3459 22.0488C27.3459 23.5121 26.0957 24.6997 24.5554 24.6997Z"
    fill="white" />
<defs>
    <linearGradient id="paint0_linear_7978_38071" x1="24.5559" y1="0.115967"
        x2="24.5559" y2="49.2277" gradientUnits="userSpaceOnUse">
        <stop stop-color="#37AC4E" />
        <stop offset="1" stop-color="#06CA2C" />
    </linearGradient>
</defs>
</svg>