<svg width="44" height="43" viewBox="0 0 44 43" fill="none" xmlns="http://www.w3.org/2000/svg">
<path d="M20.6867 22.7421H18.7898C18.4833 22.7421 18.3875 22.618 18.3875 22.308V19.8068C18.3875 19.476 18.5024 19.3727 18.7898 19.3727H20.6867V17.5536C20.6867 16.7268 20.8208 15.9413 21.204 15.2178C21.6064 14.4737 22.1812 13.9776 22.9093 13.6882C23.3883 13.5021 23.8673 13.4194 24.3846 13.4194H26.2623C26.5306 13.4194 26.6455 13.5435 26.6455 13.8329V16.1893C26.6455 16.4787 26.5306 16.6028 26.2623 16.6028C25.745 16.6028 25.2277 16.6028 24.7103 16.6234C24.193 16.6234 23.9248 16.8922 23.9248 17.4709C23.9056 18.0911 23.9248 18.6905 23.9248 19.3313H26.1473C26.4539 19.3313 26.5689 19.4554 26.5689 19.7861V22.2873C26.5689 22.618 26.4731 22.7214 26.1473 22.7214H23.9248V29.4601C23.9248 29.8115 23.829 29.9356 23.4841 29.9356H21.089C20.8016 29.9356 20.6867 29.8115 20.6867 29.5015V22.7421Z" fill="url(#paint0_linear_8405_12744)"/>
<circle cx="21.9999" cy="21.1613" r="20.6452" stroke="#404040" stroke-width="1.03226"/>
<defs>
<linearGradient id="paint0_linear_8405_12744" x1="22.5165" y1="13.4194" x2="22.5165" y2="29.9356" gradientUnits="userSpaceOnUse">
<stop stop-color="#37AC4E"/>
<stop offset="1" stop-color="#06CA2C"/>
</linearGradient>
</defs>
</svg>
