<svg width="7" height="12" viewBox="0 0 7 12" fill="none" xmlns="http://www.w3.org/2000/svg">
<path d="M2.14635 6.78236H0.913393C0.714126 6.78236 0.651855 6.70174 0.651855 6.5002V4.87443C0.651855 4.65945 0.72658 4.59227 0.913393 4.59227H2.14635V3.40989C2.14635 2.87244 2.23353 2.36187 2.48262 1.8916C2.74415 1.4079 3.11778 1.08543 3.59104 0.897326C3.90239 0.776401 4.21374 0.722656 4.55001 0.722656H5.77051C5.94487 0.722656 6.0196 0.803273 6.0196 0.991379V2.5231C6.0196 2.71121 5.94487 2.79182 5.77051 2.79182C5.43425 2.79182 5.09799 2.79182 4.76173 2.80526C4.42547 2.80526 4.25111 2.97993 4.25111 3.35614C4.23865 3.75923 4.25111 4.14887 4.25111 4.5654H5.69579C5.89506 4.5654 5.96978 4.64601 5.96978 4.86099V6.48676C5.96978 6.70174 5.90751 6.76892 5.69579 6.76892H4.25111V11.1491C4.25111 11.3775 4.18884 11.4581 3.96466 11.4581H2.40789C2.22108 11.4581 2.14635 11.3775 2.14635 11.176V6.78236Z" fill="url(#paint0_linear_8405_13163)"/>
<defs>
<linearGradient id="paint0_linear_8405_13163" x1="3.33573" y1="0.722656" x2="3.33573" y2="11.4581" gradientUnits="userSpaceOnUse">
<stop stop-color="#37AC4E"/>
<stop offset="1" stop-color="#06CA2C"/>
</linearGradient>
</defs>
</svg>
