<svg width="37" height="36" viewBox="0 0 37 36" fill="none" xmlns="http://www.w3.org/2000/svg">
<path d="M23.8295 5.11475C23.4586 5.11471 23.0974 5.11466 22.7915 5.13965C22.4556 5.1671 22.0593 5.23185 21.6604 5.43507C21.1075 5.71683 20.6579 6.16643 20.3761 6.71941C20.1729 7.11826 20.1081 7.51462 20.0807 7.85052C20.0557 8.1564 20.0557 8.51757 20.0558 8.88844V13.0966C20.0557 13.4675 20.0557 13.8287 20.0807 14.1345C20.1081 14.4704 20.1729 14.8668 20.3761 15.2656C20.6579 15.8186 21.1075 16.2682 21.6604 16.55C22.0593 16.7532 22.4556 16.818 22.7915 16.8454C23.0974 16.8704 23.4586 16.8704 23.8294 16.8703H28.0377C28.4085 16.8704 28.7697 16.8704 29.0756 16.8454C29.4115 16.818 29.8078 16.7532 30.2067 16.55C30.7597 16.2682 31.2093 15.8186 31.491 15.2656C31.6942 14.8668 31.759 14.4704 31.7864 14.1345C31.8114 13.8287 31.8114 13.4675 31.8113 13.0966V8.88844C31.8114 8.51758 31.8114 8.1564 31.7864 7.85052C31.759 7.51462 31.6942 7.11826 31.491 6.71941C31.2093 6.16643 30.7597 5.71683 30.2067 5.43507C29.8078 5.23185 29.4115 5.1671 29.0756 5.13965C28.7697 5.11466 28.4085 5.11471 28.0377 5.11475L23.8295 5.11475Z" fill="#37AC4E"/>
<path d="M9.13502 19.8092C8.76416 19.8091 8.40298 19.8091 8.0971 19.8341C7.7612 19.8615 7.36484 19.9263 6.966 20.1295C6.41301 20.4113 5.96342 20.8609 5.68166 21.4139C5.47844 21.8127 5.41368 22.2091 5.38624 22.545C5.36125 22.8508 5.36129 23.212 5.36133 23.5829L5.36133 27.7911C5.36129 28.1619 5.36125 28.5231 5.38624 28.829C5.41368 29.1649 5.47844 29.5612 5.68166 29.9601C5.96342 30.5131 6.41301 30.9627 6.966 31.2444C7.36484 31.4477 7.7612 31.5124 8.0971 31.5399C8.40298 31.5648 8.76416 31.5648 9.13502 31.5648H13.3432C13.7141 31.5648 14.0752 31.5648 14.3811 31.5399C14.717 31.5124 15.1134 31.4477 15.5122 31.2444C16.0652 30.9627 16.5148 30.5131 16.7966 29.9601C16.9998 29.5612 17.0645 29.1649 17.092 28.829C17.117 28.5231 17.1169 28.162 17.1169 27.7911V23.5829C17.1169 23.212 17.117 22.8508 17.092 22.545C17.0645 22.2091 16.9998 21.8127 16.7966 21.4139C16.5148 20.8609 16.0652 20.4113 15.5122 20.1295C15.1134 19.9263 14.717 19.8615 14.3811 19.8341C14.0752 19.8091 13.7141 19.8091 13.3432 19.8092H9.13502Z" fill="#37AC4E"/>
<path d="M23.8295 19.8092C23.4586 19.8091 23.0974 19.8091 22.7915 19.8341C22.4556 19.8615 22.0593 19.9263 21.6604 20.1295C21.1075 20.4113 20.6579 20.8609 20.3761 21.4139C20.1729 21.8127 20.1081 22.2091 20.0807 22.545C20.0557 22.8508 20.0557 23.212 20.0558 23.5829V27.7911C20.0557 28.1619 20.0557 28.5231 20.0807 28.829C20.1081 29.1649 20.1729 29.5612 20.3761 29.9601C20.6579 30.5131 21.1075 30.9627 21.6604 31.2444C22.0593 31.4477 22.4556 31.5124 22.7915 31.5399C23.0974 31.5648 23.4586 31.5648 23.8295 31.5648H28.0377C28.4085 31.5648 28.7697 31.5648 29.0756 31.5399C29.4115 31.5124 29.8078 31.4477 30.2067 31.2444C30.7597 30.9627 31.2093 30.5131 31.491 29.9601C31.6942 29.5612 31.759 29.1649 31.7864 28.829C31.8114 28.5231 31.8114 28.1619 31.8113 27.7911V23.5829C31.8114 23.212 31.8114 22.8508 31.7864 22.545C31.759 22.2091 31.6942 21.8127 31.491 21.4139C31.2093 20.8609 30.7597 20.4113 30.2067 20.1295C29.8078 19.9263 29.4115 19.8615 29.0756 19.8341C28.7697 19.8091 28.4085 19.8091 28.0377 19.8092H23.8295Z" fill="#37AC4E"/>
<path d="M9.13502 5.11475C8.76416 5.11471 8.40298 5.11466 8.0971 5.13965C7.7612 5.1671 7.36484 5.23185 6.966 5.43507C6.41301 5.71683 5.96342 6.16643 5.68166 6.71941C5.47844 7.11826 5.41368 7.51462 5.38624 7.85052C5.36125 8.15639 5.36129 8.51756 5.36133 8.88842L5.36133 13.0966C5.36129 13.4675 5.36125 13.8287 5.38624 14.1345C5.41368 14.4704 5.47844 14.8668 5.68166 15.2656C5.96342 15.8186 6.41301 16.2682 6.966 16.55C7.36484 16.7532 7.7612 16.818 8.0971 16.8454C8.40297 16.8704 8.76412 16.8704 9.13497 16.8703H13.3432C13.7141 16.8704 14.0753 16.8704 14.3811 16.8454C14.717 16.818 15.1134 16.7532 15.5122 16.55C16.0652 16.2682 16.5148 15.8186 16.7966 15.2656C16.9998 14.8668 17.0645 14.4704 17.092 14.1345C17.117 13.8287 17.1169 13.4675 17.1169 13.0967V8.88844C17.1169 8.51759 17.117 8.15638 17.092 7.85052C17.0645 7.51462 16.9998 7.11826 16.7966 6.71941C16.5148 6.16643 16.0652 5.71683 15.5122 5.43507C15.1134 5.23185 14.717 5.1671 14.3811 5.13965C14.0753 5.11466 13.7141 5.11471 13.3432 5.11475L9.13502 5.11475Z" fill="#37AC4E"/>
</svg>
