<svg width="71" height="53" viewBox="0 0 71 53" fill="none" xmlns="http://www.w3.org/2000/svg">
<path d="M35.3405 28.2067C36.5583 28.2067 37.5493 29.1976 37.5493 30.4155C37.5493 30.7084 37.6656 30.9893 37.8727 31.1964C38.0798 31.4035 38.3608 31.5199 38.6537 31.5199C38.9466 31.5199 39.2275 31.4035 39.4346 31.1964C39.6417 30.9893 39.7581 30.7084 39.7581 30.4155C39.7581 28.3609 38.348 26.6293 36.4449 26.1377V24.8935C36.4449 24.6006 36.3285 24.3196 36.1214 24.1125C35.9143 23.9054 35.6334 23.7891 35.3405 23.7891C35.0476 23.7891 34.7666 23.9054 34.5595 24.1125C34.3524 24.3196 34.2361 24.6006 34.2361 24.8935V26.1377C32.3329 26.6294 30.9229 28.3609 30.9229 30.4155C30.9229 32.8514 32.9046 34.8331 35.3405 34.8331C36.5583 34.8331 37.5493 35.824 37.5493 37.0419C37.5493 38.2598 36.5583 39.2507 35.3405 39.2507C34.1226 39.2507 33.1317 38.2598 33.1317 37.0419C33.1317 36.749 33.0153 36.4681 32.8082 36.261C32.6011 36.0538 32.3202 35.9375 32.0273 35.9375C31.7343 35.9375 31.4534 36.0538 31.2463 36.261C31.0392 36.4681 30.9229 36.749 30.9229 37.0419C30.9229 39.0965 32.3329 40.828 34.2361 41.3196V42.5639C34.2361 42.8568 34.3524 43.1377 34.5595 43.3448C34.7666 43.5519 35.0476 43.6683 35.3405 43.6683C35.6334 43.6683 35.9143 43.5519 36.1214 43.3448C36.3285 43.1377 36.4449 42.8568 36.4449 42.5639V41.3196C38.348 40.8279 39.7581 39.0965 39.7581 37.0419C39.7581 34.606 37.7764 32.6243 35.3405 32.6243C34.1226 32.6243 33.1317 31.6334 33.1317 30.4155C33.1317 29.1976 34.1226 28.2067 35.3405 28.2067Z" fill="url(#paint0_linear_7978_37045)"/>
<path d="M35.3409 19.3711C27.4242 19.3711 20.9836 25.8117 20.9836 33.7283C20.9836 41.6449 27.4242 48.0855 35.3409 48.0855C43.2575 48.0855 49.6981 41.6449 49.6981 33.7283C49.6981 25.8117 43.2575 19.3711 35.3409 19.3711ZM35.3409 45.8767C28.6423 45.8767 23.1924 40.4269 23.1924 33.7283C23.1924 27.0297 28.6423 21.5799 35.3409 21.5799C42.0395 21.5799 47.4893 27.0297 47.4893 33.7283C47.4893 40.4269 42.0395 45.8767 35.3409 45.8767Z" fill="url(#paint1_linear_7978_37045)"/>
<path d="M67.2391 14.9533L66.5332 9.30528C66.3046 7.47611 64.6295 6.18106 62.7873 6.43494L61.1885 6.66355L60.1501 2.51003C60.0434 2.08199 59.8522 1.6796 59.5877 1.32649C59.3233 0.973371 58.991 0.676654 58.6103 0.45376C58.2296 0.230865 57.8082 0.086287 57.3708 0.0285163C56.9334 -0.0292545 56.489 0.000947364 56.0634 0.117346L3.14603 14.9576C1.39652 15.045 0 16.4958 0 18.2665V49.1898C0 51.0166 1.48639 52.503 3.31321 52.503H67.3685C69.1953 52.503 70.6817 51.0166 70.6817 49.1898V18.2665C70.6817 16.5555 69.357 14.9533 67.2391 14.9533ZM63.0945 8.62221C63.2393 8.60218 63.3867 8.61112 63.5281 8.64853C63.6694 8.68593 63.802 8.75104 63.9179 8.84009C64.0339 8.92913 64.1311 9.04033 64.2037 9.16723C64.2764 9.29413 64.3231 9.4342 64.3412 9.57931L65.013 14.9535H18.8331L63.0945 8.62221ZM56.6489 2.24718C56.7906 2.20897 56.9384 2.19938 57.0839 2.21897C57.2293 2.23857 57.3693 2.28697 57.4958 2.36133C57.6223 2.43569 57.7327 2.53452 57.8206 2.65205C57.9084 2.76957 57.9719 2.90343 58.0075 3.04581L58.9905 6.97803L19.7805 12.5866L56.6489 2.24718ZM68.4729 49.1898C68.4729 49.7987 67.9774 50.2942 67.3685 50.2942H3.31321C2.70427 50.2942 2.2088 49.7987 2.2088 49.1898V18.2665C2.2088 17.6584 2.70302 17.1635 3.31086 17.1623C3.66068 17.1616 -2.19665 17.1621 67.3685 17.1621C67.9774 17.1621 68.4729 17.6576 68.4729 18.2665V49.1898Z" fill="url(#paint2_linear_7978_37045)"/>
<path d="M65.1601 22.6843C63.9422 22.6843 62.9513 21.6934 62.9513 20.4755C62.9513 20.1826 62.8349 19.9017 62.6278 19.6946C62.4207 19.4874 62.1398 19.3711 61.8469 19.3711H47.4896C47.1967 19.3711 46.9158 19.4874 46.7087 19.6946C46.5016 19.9017 46.3852 20.1826 46.3852 20.4755C46.3852 20.7684 46.5016 21.0493 46.7087 21.2564C46.9158 21.4635 47.1967 21.5799 47.4896 21.5799H60.8823C61.2826 23.1301 62.5056 24.3529 64.0557 24.7533V42.7032C62.5055 43.1036 61.2826 44.3266 60.8823 45.8766H47.4896C47.1967 45.8766 46.9158 45.993 46.7087 46.2001C46.5016 46.4072 46.3852 46.6881 46.3852 46.981C46.3852 47.2739 46.5016 47.5548 46.7087 47.7619C46.9158 47.969 47.1967 48.0854 47.4896 48.0854H61.8469C62.1398 48.0854 62.4207 47.969 62.6278 47.7619C62.8349 47.5548 62.9513 47.2739 62.9513 46.981C62.9513 45.7631 63.9422 44.7722 65.1601 44.7722C65.453 44.7722 65.7339 44.6558 65.941 44.4487C66.1481 44.2416 66.2645 43.9607 66.2645 43.6678V23.7886C66.2644 23.4957 66.1481 23.2148 65.9409 23.0077C65.7338 22.8006 65.4529 22.6843 65.1601 22.6843ZM23.1928 45.8767H9.80013C9.39979 44.3266 8.1768 43.1037 6.62677 42.7034V24.7533C8.17694 24.3529 9.39979 23.1299 9.80013 21.5799H23.1928C23.4857 21.5799 23.7666 21.4635 23.9737 21.2564C24.1808 21.0493 24.2972 20.7684 24.2972 20.4755C24.2972 20.1826 24.1808 19.9017 23.9737 19.6946C23.7666 19.4874 23.4857 19.3711 23.1928 19.3711H8.83558C8.54267 19.3711 8.26176 19.4874 8.05465 19.6946C7.84753 19.9017 7.73117 20.1826 7.73117 20.4755C7.73117 21.6934 6.74025 22.6843 5.52237 22.6843C5.22946 22.6843 4.94856 22.8007 4.74144 23.0078C4.53433 23.2149 4.41797 23.4958 4.41797 23.7887V43.6679C4.41797 43.9608 4.53433 44.2417 4.74144 44.4489C4.94856 44.656 5.22946 44.7723 5.52237 44.7723C6.74025 44.7723 7.73117 45.7633 7.73117 46.9811C7.73117 47.274 7.84753 47.5549 8.05465 47.7621C8.26176 47.9692 8.54267 48.0855 8.83558 48.0855H23.1928C23.4857 48.0855 23.7666 47.9692 23.9737 47.7621C24.1808 47.5549 24.2972 47.274 24.2972 46.9811C24.2972 46.6882 24.1808 46.4073 23.9737 46.2002C23.7666 45.9931 23.4857 45.8767 23.1928 45.8767Z" fill="url(#paint3_linear_7978_37045)"/>
<path d="M9.9397 33.7282C9.9397 35.5551 11.4261 37.0414 13.2529 37.0414C15.0797 37.0414 16.5661 35.5551 16.5661 33.7282C16.5661 31.9014 15.0797 30.415 13.2529 30.415C11.4261 30.415 9.9397 31.9014 9.9397 33.7282ZM14.3573 33.7282C14.3573 34.3372 13.8618 34.8326 13.2529 34.8326C12.644 34.8326 12.1485 34.3372 12.1485 33.7282C12.1485 33.1193 12.644 32.6238 13.2529 32.6238C13.8618 32.6238 14.3573 33.1193 14.3573 33.7282ZM60.7422 33.7282C60.7422 31.9014 59.2558 30.415 57.429 30.415C55.6022 30.415 54.1158 31.9014 54.1158 33.7282C54.1158 35.5551 55.6022 37.0414 57.429 37.0414C59.2558 37.0414 60.7422 35.5552 60.7422 33.7282ZM56.3246 33.7282C56.3246 33.1193 56.82 32.6238 57.429 32.6238C58.0379 32.6238 58.5334 33.1193 58.5334 33.7282C58.5334 34.3372 58.0379 34.8326 57.429 34.8326C56.82 34.8326 56.3246 34.3372 56.3246 33.7282Z" fill="url(#paint4_linear_7978_37045)"/>
<defs>
<linearGradient id="paint0_linear_7978_37045" x1="35.3405" y1="23.7891" x2="35.3405" y2="43.6683" gradientUnits="userSpaceOnUse">
<stop stop-color="#37AC4E"/>
<stop offset="1" stop-color="#06CA2C"/>
</linearGradient>
<linearGradient id="paint1_linear_7978_37045" x1="35.3409" y1="19.3711" x2="35.3409" y2="48.0855" gradientUnits="userSpaceOnUse">
<stop stop-color="#37AC4E"/>
<stop offset="1" stop-color="#06CA2C"/>
</linearGradient>
<linearGradient id="paint2_linear_7978_37045" x1="35.3409" y1="0" x2="35.3409" y2="52.503" gradientUnits="userSpaceOnUse">
<stop stop-color="#37AC4E"/>
<stop offset="1" stop-color="#06CA2C"/>
</linearGradient>
<linearGradient id="paint3_linear_7978_37045" x1="35.3412" y1="19.3711" x2="35.3412" y2="48.0855" gradientUnits="userSpaceOnUse">
<stop stop-color="#37AC4E"/>
<stop offset="1" stop-color="#06CA2C"/>
</linearGradient>
<linearGradient id="paint4_linear_7978_37045" x1="35.3409" y1="30.415" x2="35.3409" y2="37.0414" gradientUnits="userSpaceOnUse">
<stop stop-color="#37AC4E"/>
<stop offset="1" stop-color="#06CA2C"/>
</linearGradient>
</defs>
</svg>
