<svg width="65" height="65" viewBox="0 0 65 65" fill="none" xmlns="http://www.w3.org/2000/svg">
<path d="M7.26267 45.1559L11.118 49.0113V59.3201C11.1197 60.7397 11.6844 62.1007 12.6883 63.1046C13.6921 64.1084 15.0531 64.6731 16.4727 64.6748H59.3198C60.7394 64.6731 62.1004 64.1084 63.1042 63.1046C64.108 62.1007 64.6727 60.7397 64.6744 59.3201V32.5467C64.6703 31.1951 64.1543 29.8952 63.2304 28.9086C62.3064 27.9221 61.0431 27.3221 59.6946 27.2295C60.2346 26.2196 60.4372 25.0633 60.2728 23.9298C60.1085 22.7964 59.5857 21.7453 58.7811 20.9303L45.1438 7.28445L45.1374 7.27267H45.1277L39.8469 1.98547C38.8431 0.983583 37.4827 0.420898 36.0644 0.420898C34.6461 0.420898 33.2857 0.983583 32.2819 1.98547L1.98296 32.2961C0.984112 33.3053 0.423828 34.6679 0.423828 36.0878C0.423828 37.5077 0.984112 38.8703 1.98296 39.8794L7.26267 45.1559ZM39.8394 5.00657L42.8648 8.03411L23.7176 27.1921H17.6604L39.8394 5.00657ZM11.1277 39.782L8.02196 42.8877L4.9955 39.8612L11.1277 33.7248V39.782ZM9.53626 44.402L11.1277 42.8106V45.9934L9.53626 44.402ZM62.5326 32.5467V59.3201C62.5326 60.1722 62.1941 60.9894 61.5915 61.5919C60.989 62.1944 60.1718 62.5329 59.3198 62.5329H16.4823C15.6303 62.5329 14.8131 62.1944 14.2106 61.5919C13.608 60.9894 13.2695 60.1722 13.2695 59.3201V32.5467C13.2695 31.6947 13.608 30.8775 14.2106 30.2749C14.8131 29.6724 15.6303 29.3339 16.4823 29.3339H59.3198C60.1718 29.3339 60.989 29.6724 61.5915 30.2749C62.1941 30.8775 62.5326 31.6947 62.5326 32.5467ZM57.2668 26.9918L57.0708 27.1921H26.7451L44.3791 9.54948L57.2636 22.4414C57.8644 23.046 58.2019 23.8636 58.2025 24.7159C58.2031 25.5683 57.8668 26.3864 57.2668 26.9918ZM3.4994 33.8072L33.7962 3.49977C34.4063 2.91666 35.2175 2.59072 36.0615 2.58952C36.9055 2.58833 37.7176 2.91196 38.3294 3.49334L13.9935 27.8346C13.0468 28.3363 12.2723 29.1103 11.7702 30.0568L3.48334 38.3448C2.89151 37.7369 2.56168 36.9211 2.56468 36.0727C2.56769 35.2243 2.90328 34.4109 3.4994 33.8072Z" fill="url(#paint0_linear_7978_37025)"/>
<path d="M17.554 41.1144H23.9796C24.5476 41.1144 25.0924 40.8887 25.4941 40.487C25.8958 40.0853 26.1215 39.5405 26.1215 38.9725V34.6887C26.1215 34.1207 25.8958 33.5759 25.4941 33.1742C25.0924 32.7725 24.5476 32.5469 23.9796 32.5469H17.554C16.9859 32.5469 16.4411 32.7725 16.0394 33.1742C15.6378 33.5759 15.4121 34.1207 15.4121 34.6887V38.9725C15.4121 39.5405 15.6378 40.0853 16.0394 40.487C16.4411 40.8887 16.9859 41.1144 17.554 41.1144ZM17.554 34.6887H23.9796V38.9725H17.554V34.6887ZM16.483 47.54C16.7671 47.54 17.0395 47.4271 17.2403 47.2263C17.4411 47.0255 17.554 46.7531 17.554 46.469V44.3272C17.554 44.0431 17.4411 43.7707 17.2403 43.5699C17.0395 43.3691 16.7671 43.2562 16.483 43.2562C16.199 43.2562 15.9266 43.3691 15.7258 43.5699C15.5249 43.7707 15.4121 44.0431 15.4121 44.3272V46.469C15.4121 46.7531 15.5249 47.0255 15.7258 47.2263C15.9266 47.4271 16.199 47.54 16.483 47.54ZM20.7668 43.2562C20.4828 43.2562 20.2104 43.3691 20.0095 43.5699C19.8087 43.7707 19.6958 44.0431 19.6958 44.3272V46.469C19.6958 46.7531 19.8087 47.0255 20.0095 47.2263C20.2104 47.4271 20.4828 47.54 20.7668 47.54C21.0508 47.54 21.3232 47.4271 21.5241 47.2263C21.7249 47.0255 21.8377 46.7531 21.8377 46.469V44.3272C21.8377 44.0431 21.7249 43.7707 21.5241 43.5699C21.3232 43.3691 21.0508 43.2562 20.7668 43.2562ZM23.9796 44.3272V46.469C23.9796 46.7531 24.0924 47.0255 24.2933 47.2263C24.4941 47.4271 24.7665 47.54 25.0505 47.54C25.3346 47.54 25.607 47.4271 25.8078 47.2263C26.0086 47.0255 26.1215 46.7531 26.1215 46.469V44.3272C26.1215 44.0431 26.0086 43.7707 25.8078 43.5699C25.607 43.3691 25.3346 43.2562 25.0505 43.2562C24.7665 43.2562 24.4941 43.3691 24.2933 43.5699C24.0924 43.7707 23.9796 44.0431 23.9796 44.3272ZM29.3343 43.2562C29.0502 43.2562 28.7778 43.3691 28.577 43.5699C28.3762 43.7707 28.2633 44.0431 28.2633 44.3272V46.469C28.2633 46.7531 28.3762 47.0255 28.577 47.2263C28.7778 47.4271 29.0502 47.54 29.3343 47.54C29.6183 47.54 29.8907 47.4271 30.0915 47.2263C30.2924 47.0255 30.4052 46.7531 30.4052 46.469V44.3272C30.4052 44.0431 30.2924 43.7707 30.0915 43.5699C29.8907 43.3691 29.6183 43.2562 29.3343 43.2562ZM33.618 47.54C33.902 47.54 34.1744 47.4271 34.3753 47.2263C34.5761 47.0255 34.6889 46.7531 34.6889 46.469V44.3272C34.6889 44.0431 34.5761 43.7707 34.3753 43.5699C34.1744 43.3691 33.902 43.2562 33.618 43.2562C33.334 43.2562 33.0616 43.3691 32.8607 43.5699C32.6599 43.7707 32.5471 44.0431 32.5471 44.3272V46.469C32.5471 46.7531 32.6599 47.0255 32.8607 47.2263C33.0616 47.4271 33.334 47.54 33.618 47.54ZM42.1855 43.2562C41.9015 43.2562 41.6291 43.3691 41.4282 43.5699C41.2274 43.7707 41.1146 44.0431 41.1146 44.3272V46.469C41.1146 46.7531 41.2274 47.0255 41.4282 47.2263C41.6291 47.4271 41.9015 47.54 42.1855 47.54C42.4695 47.54 42.7419 47.4271 42.9428 47.2263C43.1436 47.0255 43.2564 46.7531 43.2564 46.469V44.3272C43.2564 44.0431 43.1436 43.7707 42.9428 43.5699C42.7419 43.3691 42.4695 43.2562 42.1855 43.2562ZM46.4692 43.2562C46.1852 43.2562 45.9128 43.3691 45.712 43.5699C45.5111 43.7707 45.3983 44.0431 45.3983 44.3272V46.469C45.3983 46.7531 45.5111 47.0255 45.712 47.2263C45.9128 47.4271 46.1852 47.54 46.4692 47.54C46.7533 47.54 47.0257 47.4271 47.2265 47.2263C47.4273 47.0255 47.5402 46.7531 47.5402 46.469V44.3272C47.5402 44.0431 47.4273 43.7707 47.2265 43.5699C47.0257 43.3691 46.7533 43.2562 46.4692 43.2562ZM50.753 43.2562C50.4689 43.2562 50.1965 43.3691 49.9957 43.5699C49.7949 43.7707 49.682 44.0431 49.682 44.3272V46.469C49.682 46.7531 49.7949 47.0255 49.9957 47.2263C50.1965 47.4271 50.4689 47.54 50.753 47.54C51.037 47.54 51.3094 47.4271 51.5102 47.2263C51.7111 47.0255 51.8239 46.7531 51.8239 46.469V44.3272C51.8239 44.0431 51.7111 43.7707 51.5102 43.5699C51.3094 43.3691 51.037 43.2562 50.753 43.2562ZM55.0367 43.2562C54.7527 43.2562 54.4803 43.3691 54.2794 43.5699C54.0786 43.7707 53.9658 44.0431 53.9658 44.3272V46.469C53.9658 46.7531 54.0786 47.0255 54.2794 47.2263C54.4803 47.4271 54.7527 47.54 55.0367 47.54C55.3207 47.54 55.5931 47.4271 55.794 47.2263C55.9948 47.0255 56.1076 46.7531 56.1076 46.469V44.3272C56.1076 44.0431 55.9948 43.7707 55.794 43.5699C55.5931 43.3691 55.3207 43.2562 55.0367 43.2562ZM20.7668 49.6818H16.483C16.199 49.6818 15.9266 49.7947 15.7258 49.9955C15.5249 50.1963 15.4121 50.4687 15.4121 50.7528C15.4121 51.0368 15.5249 51.3092 15.7258 51.51C15.9266 51.7109 16.199 51.8237 16.483 51.8237H20.7668C21.0508 51.8237 21.3232 51.7109 21.5241 51.51C21.7249 51.3092 21.8377 51.0368 21.8377 50.7528C21.8377 50.4687 21.7249 50.1963 21.5241 49.9955C21.3232 49.7947 21.0508 49.6818 20.7668 49.6818ZM29.3343 49.6818H25.0505C24.7665 49.6818 24.4941 49.7947 24.2933 49.9955C24.0924 50.1963 23.9796 50.4687 23.9796 50.7528C23.9796 51.0368 24.0924 51.3092 24.2933 51.51C24.4941 51.7109 24.7665 51.8237 25.0505 51.8237H29.3343C29.6183 51.8237 29.8907 51.7109 30.0915 51.51C30.2924 51.3092 30.4052 51.0368 30.4052 50.7528C30.4052 50.4687 30.2924 50.1963 30.0915 49.9955C29.8907 49.7947 29.6183 49.6818 29.3343 49.6818ZM20.7668 53.9656H16.483C16.199 53.9656 15.9266 54.0784 15.7258 54.2792C15.5249 54.4801 15.4121 54.7525 15.4121 55.0365C15.4121 55.3205 15.5249 55.5929 15.7258 55.7938C15.9266 55.9946 16.199 56.1074 16.483 56.1074H20.7668C21.0508 56.1074 21.3232 55.9946 21.5241 55.7938C21.7249 55.5929 21.8377 55.3205 21.8377 55.0365C21.8377 54.7525 21.7249 54.4801 21.5241 54.2792C21.3232 54.0784 21.0508 53.9656 20.7668 53.9656ZM29.3343 53.9656H25.0505C24.7665 53.9656 24.4941 54.0784 24.2933 54.2792C24.0924 54.4801 23.9796 54.7525 23.9796 55.0365C23.9796 55.3205 24.0924 55.5929 24.2933 55.7938C24.4941 55.9946 24.7665 56.1074 25.0505 56.1074H29.3343C29.6183 56.1074 29.8907 55.9946 30.0915 55.7938C30.2924 55.5929 30.4052 55.3205 30.4052 55.0365C30.4052 54.7525 30.2924 54.4801 30.0915 54.2792C29.8907 54.0784 29.6183 53.9656 29.3343 53.9656ZM37.9017 49.6818H33.618C33.334 49.6818 33.0616 49.7947 32.8607 49.9955C32.6599 50.1963 32.5471 50.4687 32.5471 50.7528C32.5471 51.0368 32.6599 51.3092 32.8607 51.51C33.0616 51.7109 33.334 51.8237 33.618 51.8237H37.9017C38.1858 51.8237 38.4582 51.7109 38.659 51.51C38.8599 51.3092 38.9727 51.0368 38.9727 50.7528C38.9727 50.4687 38.8599 50.1963 38.659 49.9955C38.4582 49.7947 38.1858 49.6818 37.9017 49.6818Z" fill="url(#paint1_linear_7978_37025)"/>
<defs>
<linearGradient id="paint0_linear_7978_37025" x1="32.5491" y1="0.420898" x2="32.5491" y2="64.6748" gradientUnits="userSpaceOnUse">
<stop stop-color="#37AC4E"/>
<stop offset="1" stop-color="#06CA2C"/>
</linearGradient>
<linearGradient id="paint1_linear_7978_37025" x1="35.7599" y1="32.5469" x2="35.7599" y2="56.1074" gradientUnits="userSpaceOnUse">
<stop stop-color="#37AC4E"/>
<stop offset="1" stop-color="#06CA2C"/>
</linearGradient>
</defs>
</svg>
