<svg width="11" height="11" viewBox="0 0 11 11" fill="none" xmlns="http://www.w3.org/2000/svg">
<path d="M5.83394 3.20605C5.48966 3.206 5.14874 3.27377 4.83065 3.40549C4.51257 3.53722 4.22355 3.73032 3.98011 3.97376C3.73666 4.2172 3.54357 4.50622 3.41184 4.82431C3.28012 5.14239 3.21235 5.48331 3.2124 5.82759C3.21235 6.17187 3.28012 6.51279 3.41184 6.83087C3.54357 7.14896 3.73666 7.43798 3.98011 7.68142C4.22355 7.92486 4.51257 8.11796 4.83065 8.24969C5.14874 8.38141 5.48966 8.44918 5.83394 8.44912C6.17822 8.44918 6.51914 8.38141 6.83722 8.24969C7.15531 8.11796 7.44432 7.92486 7.68777 7.68142C7.93121 7.43798 8.12431 7.14896 8.25603 6.83087C8.38776 6.51279 8.45553 6.17187 8.45547 5.82759C8.45553 5.48331 8.38776 5.14239 8.25603 4.82431C8.12431 4.50622 7.93121 4.2172 7.68777 3.97376C7.44432 3.73032 7.15531 3.53722 6.83722 3.40549C6.51914 3.27377 6.17822 3.206 5.83394 3.20605ZM5.83394 7.52916C5.49752 7.52908 5.16868 7.42925 4.88899 7.24229C4.60931 7.05533 4.39133 6.78965 4.26263 6.47882C4.13393 6.16799 4.10027 5.82598 4.16593 5.49603C4.23158 5.16608 4.39359 4.86301 4.63147 4.62512C4.86936 4.38724 5.17243 4.22523 5.50238 4.15958C5.83233 4.09393 6.17434 4.12758 6.48517 4.25628C6.79599 4.38498 7.06168 4.60296 7.24864 4.88264C7.43559 5.16233 7.53542 5.49117 7.53551 5.82759C7.53562 6.05107 7.49168 6.27239 7.40621 6.47889C7.32074 6.68538 7.19541 6.873 7.03738 7.03103C6.87935 7.18906 6.69173 7.31439 6.48523 7.39986C6.27874 7.48534 6.05742 7.52927 5.83394 7.52916Z" fill="url(#paint0_linear_8405_13157)"/>
<path d="M7.93772 0.754749C6.99775 0.710901 4.66953 0.713029 3.72871 0.754749C2.90197 0.793489 2.17273 0.993148 1.58482 1.58106C0.602276 2.5636 0.727862 3.88756 0.727862 5.82924C0.727862 7.81646 0.617176 9.10977 1.58482 10.0774C2.57119 11.0634 3.91432 10.9344 5.833 10.9344C7.80149 10.9344 8.48093 10.9357 9.17697 10.6662C10.1233 10.2988 10.8377 9.4529 10.9075 7.93353C10.9518 6.99313 10.9492 4.66534 10.9075 3.72452C10.8232 1.93099 9.86066 0.843297 7.93772 0.754749ZM9.42558 9.42735C8.78148 10.0715 7.88791 10.014 5.82065 10.014C3.69209 10.014 2.83854 10.0455 2.21573 9.42097C1.4984 8.70705 1.62824 7.56061 1.62824 5.82243C1.62824 3.47037 1.38686 1.77646 3.74744 1.65556C4.28979 1.6364 4.44944 1.63001 5.81469 1.63001L5.83385 1.64278C8.10247 1.64278 9.88237 1.40524 9.98923 3.76538C10.0135 4.30391 10.019 4.46568 10.019 5.82881C10.0186 7.93268 10.0586 8.79134 9.42558 9.42735Z" fill="url(#paint1_linear_8405_13157)"/>
<path d="M8.55864 3.71739C8.89697 3.71739 9.17124 3.44312 9.17124 3.10479C9.17124 2.76646 8.89697 2.49219 8.55864 2.49219C8.22032 2.49219 7.94604 2.76646 7.94604 3.10479C7.94604 3.44312 8.22032 3.71739 8.55864 3.71739Z" fill="url(#paint2_linear_8405_13157)"/>
<defs>
<linearGradient id="paint0_linear_8405_13157" x1="5.83394" y1="3.20605" x2="5.83394" y2="8.44912" gradientUnits="userSpaceOnUse">
<stop stop-color="#37AC4E"/>
<stop offset="1" stop-color="#06CA2C"/>
</linearGradient>
<linearGradient id="paint1_linear_8405_13157" x1="5.8312" y1="0.722656" x2="5.8312" y2="10.9399" gradientUnits="userSpaceOnUse">
<stop stop-color="#37AC4E"/>
<stop offset="1" stop-color="#06CA2C"/>
</linearGradient>
<linearGradient id="paint2_linear_8405_13157" x1="8.55864" y1="2.49219" x2="8.55864" y2="3.71739" gradientUnits="userSpaceOnUse">
<stop stop-color="#37AC4E"/>
<stop offset="1" stop-color="#06CA2C"/>
</linearGradient>
</defs>
</svg>
