<svg width="101" height="101" viewBox="0 0 101 101" fill="none" xmlns="http://www.w3.org/2000/svg">
<rect x="8" y="8" width="85" height="85" rx="42.5" fill="#D1FADC"/>
<rect x="8" y="8" width="85" height="85" rx="42.5" stroke="#ECFDF3" stroke-width="14.1667"/>
<path d="M65.0178 36.7461C62.6986 36.4992 60.4162 35.9831 58.2164 35.2083C56.1978 34.4949 54.2615 33.5671 52.4408 32.4407C51.9657 32.1524 51.4207 32 50.865 32C50.3093 32 49.7643 32.1524 49.2892 32.4407L49.2875 32.4425C47.4671 33.5679 45.5314 34.4952 43.5136 35.2083C41.3149 35.9828 39.0336 36.4988 36.7157 36.7461C35.9711 36.8219 35.2812 37.1713 34.7795 37.7267C34.2778 38.2821 34 39.0039 34 39.7524V48.7384C34.0013 52.0543 34.8887 55.3097 36.5705 58.1675C38.2523 61.0253 40.6672 63.3817 43.5655 64.9928L49.3947 68.2326C49.8436 68.4851 50.35 68.6177 50.865 68.6177C51.38 68.6177 51.8864 68.4851 52.3353 68.2326L58.1645 64.9928C61.0627 63.3817 63.4777 61.0253 65.1595 58.1675C66.8413 55.3097 67.7287 52.0543 67.73 48.7384V39.7541C67.7309 39.0056 67.4541 38.2834 66.953 37.7273C66.4519 37.1713 65.7623 36.8228 65.0178 36.7461ZM57.7476 47.128L51.2611 54.047C50.953 54.3757 50.5286 54.571 50.0785 54.5914C49.6284 54.6117 49.1881 54.4555 48.8516 54.1559L44.9597 50.6964C44.7813 50.5482 44.6345 50.3655 44.5282 50.1593C44.4218 49.9532 44.358 49.7277 44.3406 49.4964C44.3231 49.2651 44.3524 49.0327 44.4266 48.8129C44.5008 48.5931 44.6185 48.3905 44.7726 48.2171C44.9267 48.0437 45.1141 47.9031 45.3237 47.8037C45.5332 47.7042 45.7607 47.6479 45.9924 47.6381C46.2242 47.6283 46.4556 47.6652 46.6728 47.7467C46.89 47.8281 47.0886 47.9524 47.2568 48.1122L49.8912 50.4526L55.2257 44.7617C55.3876 44.5895 55.5829 44.4522 55.7997 44.3582C56.0166 44.2642 56.2503 44.2155 56.4867 44.2151C56.8241 44.2149 57.1542 44.3135 57.4364 44.4986C57.7185 44.6837 57.9404 44.9473 58.0746 45.2569C58.2088 45.5665 58.2495 45.9086 58.1918 46.2411C58.134 46.5735 57.9785 46.8818 57.7476 47.128Z" fill="#3BAE51"/>
</svg>
