<svg width="37" height="36" viewBox="0 0 37 36" fill="none" xmlns="http://www.w3.org/2000/svg">
<path fill-rule="evenodd" clip-rule="evenodd" d="M17.8504 3.09912C16.6331 3.09912 15.6463 4.08596 15.6463 5.30329V5.83877C15.6463 6.17401 15.4186 6.46441 15.0984 6.56371C14.4062 6.77837 13.7415 7.05525 13.1106 7.38782C12.814 7.54419 12.4476 7.49988 12.2105 7.26279L11.8312 6.8835C10.9704 6.02272 9.57484 6.02272 8.71406 6.8835L7.675 7.92255C6.81422 8.78333 6.81422 10.1789 7.675 11.0397L8.05429 11.419C8.29139 11.6561 8.33569 12.0225 8.17932 12.3191C7.84677 12.9499 7.5699 13.6147 7.35524 14.3068C7.25594 14.627 6.96554 14.8547 6.6303 14.8547H6.09479C4.87746 14.8547 3.89062 15.8415 3.89062 17.0588V18.5283C3.89062 19.7456 4.87746 20.7325 6.09479 20.7325H6.6303C6.96554 20.7325 7.25594 20.9602 7.35524 21.2804C7.5699 21.9725 7.84677 22.6372 8.17932 23.268C8.33569 23.5646 8.29139 23.931 8.05429 24.1681L7.675 24.5474C6.81422 25.4082 6.81422 26.8038 7.675 27.6646L8.71406 28.7036C9.57484 29.5644 10.9704 29.5644 11.8312 28.7036L12.2105 28.3243C12.4476 28.0873 12.814 28.0429 13.1106 28.1993C13.7415 28.5319 14.4062 28.8088 15.0984 29.0234C15.4186 29.1227 15.6463 29.4131 15.6463 29.7484V30.2838C15.6463 31.5012 16.6331 32.488 17.8504 32.488H19.3199C20.5372 32.488 21.5241 31.5012 21.5241 30.2838V29.7483C21.5241 29.4131 21.7518 29.1227 22.072 29.0234C22.764 28.8087 23.4287 28.5319 24.0595 28.1993C24.3561 28.0429 24.7225 28.0872 24.9596 28.3243L25.3389 28.7036C26.1997 29.5644 27.5953 29.5644 28.4561 28.7036L29.4951 27.6646C30.3559 26.8038 30.3559 25.4082 29.4951 24.5474L29.1158 24.1681C28.8788 23.931 28.8344 23.5646 28.9908 23.268C29.3234 22.6372 29.6002 21.9725 29.8149 21.2804C29.9142 20.9602 30.2046 20.7325 30.5398 20.7325H31.0753C32.2927 20.7325 33.2795 19.7456 33.2795 18.5283V17.0588C33.2795 15.8415 32.2927 14.8547 31.0753 14.8547H30.5398C30.2046 14.8547 29.9142 14.627 29.8149 14.3068C29.6002 13.6147 29.3234 12.9499 28.9908 12.3191C28.8344 12.0225 28.8788 11.6561 29.1158 11.419L29.4951 11.0397C30.3559 10.1789 30.3559 8.78333 29.4951 7.92255L28.4561 6.8835C27.5953 6.02272 26.1997 6.02272 25.3389 6.8835L24.9596 7.26279C24.7225 7.49988 24.3561 7.54419 24.0595 7.38782C23.4287 7.05528 22.764 6.77842 22.072 6.56377C21.7518 6.46446 21.5241 6.17407 21.5241 5.83883V5.30329C21.5241 4.08596 20.5372 3.09912 19.3199 3.09912H17.8504ZM18.5851 22.2019C21.0197 22.2019 22.9934 20.2282 22.9934 17.7936C22.9934 15.3589 21.0197 13.3852 18.5851 13.3852C16.1504 13.3852 14.1767 15.3589 14.1767 17.7936C14.1767 20.2282 16.1504 22.2019 18.5851 22.2019Z" fill="#37AC4E"/>
</svg>
