<svg width="37" height="36" viewBox="0 0 37 36" fill="none" xmlns="http://www.w3.org/2000/svg">
<path fill-rule="evenodd" clip-rule="evenodd" d="M17.118 27.9662C17.118 29.5893 15.8022 30.9051 14.1791 30.9051C12.556 30.9051 11.2402 29.5893 11.2402 27.9662C11.2402 26.3431 12.556 25.0273 14.1791 25.0273C15.8022 25.0273 17.118 26.3431 17.118 27.9662ZM28.8736 27.9662C28.8736 29.5893 27.5578 30.9051 25.9347 30.9051C24.3116 30.9051 22.9958 29.5893 22.9958 27.9662C22.9958 26.3431 24.3116 25.0273 25.9347 25.0273C27.5578 25.0273 28.8736 26.3431 28.8736 27.9662Z" fill="#37AC4E"/>
<path d="M6.83077 4.45508C6.01922 4.45508 5.36133 5.11297 5.36133 5.92452C5.36133 6.73607 6.01922 7.39397 6.83077 7.39397H7.36035C8.0608 7.39397 8.66389 7.88838 8.80126 8.57523L11.0314 19.7259C11.3061 21.0996 12.5123 22.0884 13.9132 22.0884H26.9703C28.3374 22.0884 29.5239 21.1458 29.8331 19.8141L31.7478 11.566C32.0686 10.1841 31.0194 8.86341 29.6007 8.86341H11.856L11.6831 7.99887C11.271 5.93831 9.46172 4.45508 7.36035 4.45508H6.83077Z" fill="#37AC4E"/>
</svg>
