
<svg width="194" height="195" viewBox="0 0 194 195" fill="none" xmlns="http://www.w3.org/2000/svg">
<g filter="url(#filter0_d_7978_36097)">
<circle cx="97" cy="77.5385" r="39" fill="#37AC4E"/>
</g>
<path d="M112.128 63.4544C109.726 63.1987 107.362 62.6641 105.083 61.8616C102.992 61.1227 100.987 60.1617 99.101 58.995C98.6089 58.6964 98.0443 58.5385 97.4688 58.5385C96.8932 58.5385 96.3286 58.6964 95.8365 58.995L95.8348 58.9968C93.9492 60.1625 91.9443 61.1229 89.8542 61.8616C87.5768 62.6638 85.2138 63.1983 82.8129 63.4544C82.0417 63.533 81.327 63.8949 80.8074 64.4702C80.2877 65.0455 80 65.7931 80 66.5683V75.876C80.0013 79.3107 80.9205 82.6826 82.6625 85.6427C84.4045 88.6028 86.9059 91.0436 89.9079 92.7123L95.9458 96.0681C96.4108 96.3296 96.9353 96.467 97.4688 96.467C98.0022 96.467 98.5267 96.3296 98.9917 96.0681L105.03 92.7123C108.032 91.0436 110.533 88.6028 112.275 85.6427C114.017 82.6826 114.936 79.3107 114.938 75.876V66.5701C114.938 65.7948 114.652 65.0468 114.133 64.4708C113.614 63.8949 112.899 63.5339 112.128 63.4544ZM104.598 74.208L97.879 81.3747C97.5599 81.7151 97.1203 81.9175 96.6541 81.9386C96.1879 81.9597 95.7319 81.7978 95.3833 81.4875L91.352 77.9042C91.1672 77.7506 91.0152 77.5614 90.9051 77.3479C90.7949 77.1343 90.7288 76.9008 90.7108 76.6612C90.6927 76.4216 90.723 76.1809 90.7999 75.9532C90.8767 75.7256 90.9986 75.5157 91.1582 75.3361C91.3179 75.1565 91.512 75.0109 91.7291 74.9079C91.9461 74.8048 92.1817 74.7465 92.4218 74.7364C92.6618 74.7262 92.9015 74.7645 93.1264 74.8489C93.3514 74.9332 93.5571 75.062 93.7313 75.2275L96.46 77.6516L101.986 71.757C102.153 71.5786 102.356 71.4364 102.58 71.3391C102.805 71.2417 103.047 71.1913 103.292 71.1908C103.641 71.1907 103.983 71.2927 104.275 71.4844C104.568 71.6762 104.797 71.9492 104.936 72.2699C105.075 72.5906 105.118 72.945 105.058 73.2893C104.998 73.6337 104.837 73.953 104.598 74.208Z" fill="white"/>
<defs>
<filter id="filter0_d_7978_36097" x="0" y="0.538452" width="194" height="194" filterUnits="userSpaceOnUse" color-interpolation-filters="sRGB">
<feFlood flood-opacity="0" result="BackgroundImageFix"/>
<feColorMatrix in="SourceAlpha" type="matrix" values="0 0 0 0 0 0 0 0 0 0 0 0 0 0 0 0 0 0 127 0" result="hardAlpha"/>
<feOffset dy="20"/>
<feGaussianBlur stdDeviation="29"/>
<feComposite in2="hardAlpha" operator="out"/>
<feColorMatrix type="matrix" values="0 0 0 0 0 0 0 0 0 0 0 0 0 0 0 0 0 0 0.08 0"/>
<feBlend mode="normal" in2="BackgroundImageFix" result="effect1_dropShadow_7978_36097"/>
<feBlend mode="normal" in="SourceGraphic" in2="effect1_dropShadow_7978_36097" result="shape"/>
</filter>
</defs>
</svg>
