<svg width="37" height="37" viewBox="0 0 37 37" fill="none" xmlns="http://www.w3.org/2000/svg">
<path fill-rule="evenodd" clip-rule="evenodd" d="M5.36133 14.6325C5.36133 11.3406 5.36133 9.69468 6.00197 8.43735C6.56549 7.33138 7.46468 6.43219 8.57065 5.86867C9.82798 5.22803 11.4739 5.22803 14.7658 5.22803H22.4069C25.6987 5.22803 27.3447 5.22803 28.602 5.86867C29.708 6.43219 30.6072 7.33138 31.1707 8.43735C31.8113 9.69468 31.8113 11.3406 31.8113 14.6325V22.2736C31.8113 25.5654 31.8113 27.2114 31.1707 28.4687C30.6072 29.5747 29.708 30.4739 28.602 31.0374C27.3447 31.678 25.6987 31.678 22.4069 31.678H14.7658C11.4739 31.678 9.82798 31.678 8.57065 31.0374C7.46468 30.4739 6.56549 29.5747 6.00197 28.4687C5.36133 27.2114 5.36133 25.5654 5.36133 22.2736V14.6325ZM17.1169 24.3308C17.1169 23.5193 17.7748 22.8614 18.5863 22.8614H24.4641C25.2757 22.8614 25.9336 23.5193 25.9336 24.3308C25.9336 25.1424 25.2757 25.8003 24.4641 25.8003H18.5863C17.7748 25.8003 17.1169 25.1424 17.1169 24.3308ZM18.5863 16.9836C17.7748 16.9836 17.1169 17.6415 17.1169 18.453C17.1169 19.2646 17.7748 19.9225 18.5863 19.9225H24.4641C25.2757 19.9225 25.9336 19.2646 25.9336 18.453C25.9336 17.6415 25.2757 16.9836 24.4641 16.9836H18.5863ZM17.1169 12.5752C17.1169 11.7637 17.7748 11.1058 18.5863 11.1058H24.4641C25.2757 11.1058 25.9336 11.7637 25.9336 12.5752C25.9336 13.3868 25.2757 14.0447 24.4641 14.0447H18.5863C17.7748 14.0447 17.1169 13.3868 17.1169 12.5752ZM12.7086 25.8003C13.5201 25.8003 14.178 25.1424 14.178 24.3308C14.178 23.5193 13.5201 22.8614 12.7086 22.8614C11.897 22.8614 11.2391 23.5193 11.2391 24.3308C11.2391 25.1424 11.897 25.8003 12.7086 25.8003ZM14.178 18.453C14.178 19.2646 13.5201 19.9225 12.7086 19.9225C11.897 19.9225 11.2391 19.2646 11.2391 18.453C11.2391 17.6415 11.897 16.9836 12.7086 16.9836C13.5201 16.9836 14.178 17.6415 14.178 18.453ZM12.7086 14.0447C13.5201 14.0447 14.178 13.3868 14.178 12.5752C14.178 11.7637 13.5201 11.1058 12.7086 11.1058C11.897 11.1058 11.2391 11.7637 11.2391 12.5752C11.2391 13.3868 11.897 14.0447 12.7086 14.0447Z" fill="#37AC4E"/>
</svg>
