<svg width="30" height="30" viewBox="0 0 30 30" fill="none" xmlns="http://www.w3.org/2000/svg">
<g id="Group">
<path id="Vector" d="M14.7167 0.522461H14.7095C6.74296 0.522461 0.264648 7.00258 0.264648 14.9709C0.264648 18.1315 1.28326 21.0609 3.01527 23.4395L1.21463 28.8071L6.76825 27.0317C9.05291 28.5452 11.7782 29.4193 14.7167 29.4193C22.6832 29.4193 29.1615 22.9374 29.1615 14.9709C29.1615 7.00439 22.6832 0.522461 14.7167 0.522461Z" fill="#4CAF50"/>
<path id="Vector_2" d="M23.1242 20.9255C22.7756 21.9098 21.3922 22.7261 20.2887 22.9645C19.5337 23.1253 18.5476 23.2535 15.2281 21.8773C10.9821 20.1182 8.24771 15.8035 8.0346 15.5236C7.83051 15.2437 6.31885 13.2389 6.31885 11.1656C6.31885 9.09223 7.37178 8.08265 7.7962 7.6492C8.14477 7.2934 8.7209 7.13086 9.27355 7.13086C9.45235 7.13086 9.61309 7.13989 9.75757 7.14711C10.182 7.16517 10.3951 7.19046 10.675 7.86051C11.0236 8.70032 11.8725 10.7737 11.9736 10.9868C12.0765 11.1999 12.1795 11.4889 12.035 11.7688C11.8996 12.0578 11.7804 12.186 11.5672 12.4316C11.3541 12.6773 11.1518 12.8651 10.9387 13.1288C10.7437 13.3581 10.5233 13.6038 10.769 14.0282C11.0146 14.4436 11.8634 15.8288 13.1132 16.9413C14.726 18.3772 16.0336 18.8359 16.5014 19.0309C16.8499 19.1754 17.2653 19.1411 17.52 18.8702C17.8433 18.5216 18.2424 17.9437 18.6488 17.3748C18.9377 16.9666 19.3026 16.9161 19.6855 17.0605C20.0756 17.196 22.1399 18.2164 22.5643 18.4277C22.9887 18.6408 23.2687 18.742 23.3716 18.9208C23.4727 19.0996 23.4727 19.9394 23.1242 20.9255Z" fill="#FAFAFA"/>
</g>
</svg>
