<svg width="33" height="32" viewBox="0 0 33 32" fill="none" xmlns="http://www.w3.org/2000/svg">
<g clip-path="url(#clip0_8273_12379)">
<path d="M25.3846 0.0964355H8.26168C6.32502 0.101945 4.46926 0.873721 3.09984 2.24315C1.73041 3.61257 0.958635 5.46833 0.953125 7.40499L0.953125 24.5279C0.958635 26.4645 1.73041 28.3203 3.09984 29.6897C4.46926 31.0591 6.32502 31.8309 8.26168 31.8364H25.3846C27.3212 31.8309 29.177 31.0591 30.5464 29.6897C31.9158 28.3203 32.6876 26.4645 32.6931 24.5279V7.40499C32.6876 5.46833 31.9158 3.61257 30.5464 2.24315C29.177 0.873721 27.3212 0.101945 25.3846 0.0964355ZM23.3403 17.3342H18.5229C18.4858 17.3339 18.449 17.341 18.4147 17.3551C18.3804 17.3691 18.3492 17.3899 18.3229 17.4161C18.2967 17.4424 18.2759 17.4735 18.2619 17.5079C18.2478 17.5422 18.2407 17.579 18.241 17.6161V22.4397C18.241 22.8158 18.0916 23.1764 17.8257 23.4423C17.5598 23.7082 17.1992 23.8576 16.8231 23.8576C16.4471 23.8576 16.0864 23.7082 15.8205 23.4423C15.5546 23.1764 15.4053 22.8158 15.4053 22.4397V17.6161C15.4055 17.579 15.3984 17.5422 15.3844 17.5079C15.3703 17.4735 15.3496 17.4424 15.3233 17.4161C15.2971 17.3899 15.2659 17.3691 15.2316 17.3551C15.1972 17.341 15.1605 17.3339 15.1234 17.3342H10.306C10.1198 17.3342 9.93542 17.2975 9.76339 17.2262C9.59137 17.155 9.43507 17.0506 9.30341 16.9189C9.17175 16.7872 9.06731 16.6309 8.99605 16.4589C8.9248 16.2869 8.88812 16.1025 8.88812 15.9163C8.88812 15.7301 8.9248 15.5458 8.99605 15.3737C9.06731 15.2017 9.17175 15.0454 9.30341 14.9137C9.43507 14.7821 9.59137 14.6776 9.76339 14.6064C9.93542 14.5351 10.1198 14.4985 10.306 14.4985H15.1234C15.1605 14.4987 15.1972 14.4916 15.2316 14.4776C15.2659 14.4635 15.2971 14.4427 15.3233 14.4165C15.3496 14.3903 15.3703 14.3591 15.3844 14.3248C15.3984 14.2904 15.4055 14.2537 15.4053 14.2166V9.39918C15.4053 9.02314 15.5546 8.6625 15.8205 8.3966C16.0864 8.1307 16.4471 7.98132 16.8231 7.98132C17.1992 7.98132 17.5598 8.1307 17.8257 8.3966C18.0916 8.6625 18.241 9.02314 18.241 9.39918V14.2166C18.2399 14.2542 18.2463 14.2916 18.26 14.3267C18.2737 14.3618 18.2943 14.3937 18.3207 14.4206C18.347 14.4475 18.3784 14.4688 18.4132 14.4833C18.4479 14.4977 18.4853 14.505 18.5229 14.5047H23.3403C23.7163 14.5047 24.0769 14.6541 24.3428 14.92C24.6087 15.1859 24.7581 15.5465 24.7581 15.9226C24.7581 16.2986 24.6087 16.6593 24.3428 16.9252C24.0769 17.1911 23.7163 17.3404 23.3403 17.3404V17.3342Z" fill="#37AC4E"/>
</g>
<defs>
<clipPath id="clip0_8273_12379">
<rect width="31.74" height="31.74" fill="white" transform="translate(0.953125 0.0964355)"/>
</clipPath>
</defs>
</svg>
