<svg xmlns="http://www.w3.org/2000/svg" width="50" height="50" viewBox="0 0 50 50"
fill="none">
<circle cx="24.5559" cy="24.5559" r="24.5559"
    fill="url(#paint0_linear_7978_38077)" />
<path
    d="M29.2944 19.8176C28.6721 19.1958 27.9333 18.7027 27.1203 18.3666C26.3073 18.0305 25.436 17.8579 24.5563 17.8587V24.5558L19.8181 29.294C22.4356 31.9114 26.6714 31.9114 29.2889 29.294C31.9063 26.6765 31.9063 22.4351 29.2944 19.8176ZM24.5563 13.394C18.3894 13.394 13.3945 18.3889 13.3945 24.5558C13.3945 30.7227 18.3894 35.7175 24.5563 35.7175C30.7232 35.7175 35.718 30.7171 35.718 24.5558C35.718 18.3889 30.7232 13.394 24.5563 13.394ZM24.5563 33.4852C19.6228 33.4852 15.6269 29.4893 15.6269 24.5558C15.6269 19.6223 19.6228 15.6264 24.5563 15.6264C29.4898 15.6264 33.4857 19.6223 33.4857 24.5558C33.4857 29.4893 29.4898 33.4852 24.5563 33.4852Z"
    fill="white" />
<defs>
    <linearGradient id="paint0_linear_7978_38077" x1="24.5559" y1="0"
        x2="24.5559" y2="49.1117" gradientUnits="userSpaceOnUse">
        <stop stop-color="#37AC4E" />
        <stop offset="1" stop-color="#06CA2C" />
    </linearGradient>
</defs>
</svg>