<svg width="64" height="42" viewBox="0 0 64 42" fill="none" xmlns="http://www.w3.org/2000/svg">
<g id="Group ">
<path id="Vector" fill-rule="evenodd" clip-rule="evenodd" d="M40.9433 40.459C42.5564 34.2223 43.9819 27.868 45.3507 21.5769C42.1031 23.0621 39.3031 24.9181 36.3871 26.9857C34.7785 24.3271 31.4372 20.7868 28.9946 18.8887C26.1703 21.6937 24.1286 24.2654 21.8896 27.4661C19.4391 25.5166 16.9825 23.9898 14.1133 22.7049C15.0782 28.667 16.4314 34.5271 18.1176 40.3251C21.1238 40.0758 23.7226 39.2598 26.7465 39.1706C31.9427 39.0167 35.8018 39.4859 40.9433 40.459Z" stroke="url(#paint0_linear_7978_37123)" stroke-width="1.82143" stroke-miterlimit="1.5" stroke-linecap="round" stroke-linejoin="round"/>
<path id="Vector_2" d="M1 20.0771C2.55735 20.6565 4.09871 21.2942 5.66698 21.8423" stroke="url(#paint1_linear_7978_37123)" stroke-width="1.82143" stroke-miterlimit="1.5" stroke-linecap="round" stroke-linejoin="round"/>
<path id="Vector_3" d="M16.1318 2.63965C16.7855 4.36661 17.5716 6.03779 18.2499 7.75371" stroke="url(#paint2_linear_7978_37123)" stroke-width="1.82143" stroke-miterlimit="1.5" stroke-linecap="round" stroke-linejoin="round"/>
<path id="Vector_4" d="M36.7422 7.57438C38.0492 5.42569 39.134 3.15123 40.4353 1" stroke="url(#paint3_linear_7978_37123)" stroke-width="1.82143" stroke-miterlimit="1.5" stroke-linecap="round" stroke-linejoin="round"/>
<path id="Vector_5" d="M55.6211 21.6341C57.8965 20.6235 60.2275 19.63 62.4059 18.4189" stroke="url(#paint4_linear_7978_37123)" stroke-width="1.82143" stroke-miterlimit="1.5" stroke-linecap="round" stroke-linejoin="round"/>
</g>
<defs>
<linearGradient id="paint0_linear_7978_37123" x1="29.732" y1="18.8887" x2="29.732" y2="40.459" gradientUnits="userSpaceOnUse">
<stop stop-color="#37AC4E"/>
<stop offset="1" stop-color="#06CA2C"/>
</linearGradient>
<linearGradient id="paint1_linear_7978_37123" x1="3.33349" y1="20.0771" x2="3.33349" y2="21.8423" gradientUnits="userSpaceOnUse">
<stop stop-color="#37AC4E"/>
<stop offset="1" stop-color="#06CA2C"/>
</linearGradient>
<linearGradient id="paint2_linear_7978_37123" x1="17.1909" y1="2.63965" x2="17.1909" y2="7.75371" gradientUnits="userSpaceOnUse">
<stop stop-color="#37AC4E"/>
<stop offset="1" stop-color="#06CA2C"/>
</linearGradient>
<linearGradient id="paint3_linear_7978_37123" x1="38.5888" y1="1" x2="38.5888" y2="7.57438" gradientUnits="userSpaceOnUse">
<stop stop-color="#37AC4E"/>
<stop offset="1" stop-color="#06CA2C"/>
</linearGradient>
<linearGradient id="paint4_linear_7978_37123" x1="59.0135" y1="18.4189" x2="59.0135" y2="21.6341" gradientUnits="userSpaceOnUse">
<stop stop-color="#37AC4E"/>
<stop offset="1" stop-color="#06CA2C"/>
</linearGradient>
</defs>
</svg>
