<svg xmlns="http://www.w3.org/2000/svg" width="69" height="140" viewBox="0 0 69 140" fill="none">
    <g opacity="0.4">
      <path d="M64.3321 137.243C64.5321 136.143 65.6321 135.343 66.7321 135.543C67.8321 135.743 68.6322 136.843 68.4322 137.943C68.2322 139.043 67.1321 139.843 66.0321 139.643C64.8321 139.443 64.1321 138.343 64.3321 137.243Z" fill="url(#paint0_linear_7978_37559)"/>
      <path d="M48.2326 137.243C48.4326 136.143 49.5325 135.343 50.6325 135.543C51.7325 135.743 52.5325 136.843 52.3325 137.943C52.1325 139.043 51.0326 139.843 49.9326 139.643C48.8326 139.443 48.0326 138.343 48.2326 137.243Z" fill="url(#paint1_linear_7978_37559)"/>
      <path d="M32.2326 137.243C32.4326 136.143 33.5325 135.343 34.6325 135.543C35.7325 135.743 36.5325 136.843 36.3325 137.943C36.1325 139.043 35.0326 139.843 33.9326 139.643C32.7326 139.443 31.9326 138.343 32.2326 137.243Z" fill="url(#paint2_linear_7978_37559)"/>
      <path d="M16.1329 137.243C16.3329 136.143 17.4329 135.343 18.5329 135.543C19.6329 135.743 20.4329 136.843 20.2329 137.943C20.0329 139.043 18.9329 139.843 17.8329 139.643C16.6329 139.443 15.9329 138.343 16.1329 137.243Z" fill="url(#paint3_linear_7978_37559)"/>
      <path d="M0.0313924 137.243C0.231392 136.143 1.33142 135.343 2.43142 135.543C3.53142 135.743 4.33137 136.843 4.13137 137.943C3.93137 139.043 2.83141 139.843 1.73141 139.643C0.631405 139.443 -0.168607 138.343 0.0313924 137.243Z" fill="url(#paint4_linear_7978_37559)"/>
      <path d="M64.3321 123.743C64.5321 122.643 65.6321 121.843 66.7321 122.043C67.8321 122.243 68.6322 123.343 68.4322 124.443C68.2322 125.543 67.1321 126.343 66.0321 126.143C64.8321 125.943 64.1321 124.843 64.3321 123.743Z" fill="url(#paint5_linear_7978_37559)"/>
      <path d="M48.2326 123.743C48.4326 122.643 49.5325 121.843 50.6325 122.043C51.7325 122.243 52.5325 123.343 52.3325 124.443C52.1325 125.543 51.0326 126.343 49.9326 126.143C48.8326 125.943 48.0326 124.843 48.2326 123.743Z" fill="url(#paint6_linear_7978_37559)"/>
      <path d="M32.2326 123.743C32.4326 122.643 33.5325 121.843 34.6325 122.043C35.7325 122.243 36.5325 123.343 36.3325 124.443C36.1325 125.543 35.0326 126.343 33.9326 126.143C32.7326 125.943 31.9326 124.843 32.2326 123.743Z" fill="url(#paint7_linear_7978_37559)"/>
      <path d="M16.1329 123.743C16.3329 122.643 17.4329 121.843 18.5329 122.043C19.6329 122.243 20.4329 123.343 20.2329 124.443C20.0329 125.543 18.9329 126.343 17.8329 126.143C16.6329 125.943 15.9329 124.843 16.1329 123.743Z" fill="url(#paint8_linear_7978_37559)"/>
      <path d="M0.0313924 123.743C0.231392 122.643 1.33142 121.843 2.43142 122.043C3.53142 122.243 4.33137 123.343 4.13137 124.443C3.93137 125.543 2.83141 126.343 1.73141 126.143C0.631405 125.943 -0.168607 124.843 0.0313924 123.743Z" fill="url(#paint9_linear_7978_37559)"/>
      <path d="M64.3321 110.143C64.5321 109.043 65.6321 108.243 66.7321 108.443C67.8321 108.643 68.6322 109.743 68.4322 110.843C68.2322 111.943 67.1321 112.743 66.0321 112.543C64.8321 112.343 64.1321 111.343 64.3321 110.143Z" fill="url(#paint10_linear_7978_37559)"/>
      <path d="M48.2326 110.143C48.4326 109.043 49.5325 108.243 50.6325 108.443C51.7325 108.643 52.5325 109.743 52.3325 110.843C52.1325 111.943 51.0326 112.743 49.9326 112.543C48.8326 112.343 48.0326 111.343 48.2326 110.143Z" fill="url(#paint11_linear_7978_37559)"/>
      <path d="M32.2326 110.143C32.4326 109.043 33.5325 108.243 34.6325 108.443C35.7325 108.643 36.5325 109.743 36.3325 110.843C36.1325 111.943 35.0326 112.743 33.9326 112.543C32.7326 112.343 31.9326 111.343 32.2326 110.143Z" fill="url(#paint12_linear_7978_37559)"/>
      <path d="M16.1329 110.143C16.3329 109.043 17.4329 108.243 18.5329 108.443C19.6329 108.643 20.4329 109.743 20.2329 110.843C20.0329 111.943 18.9329 112.743 17.8329 112.543C16.6329 112.343 15.9329 111.343 16.1329 110.143Z" fill="url(#paint13_linear_7978_37559)"/>
      <path d="M0.0313924 110.143C0.231392 109.043 1.33142 108.243 2.43142 108.443C3.53142 108.643 4.33137 109.743 4.13137 110.843C3.93137 111.943 2.83141 112.743 1.73141 112.543C0.631405 112.343 -0.168607 111.343 0.0313924 110.143Z" fill="url(#paint14_linear_7978_37559)"/>
      <path d="M64.3321 96.643C64.5321 95.543 65.6321 94.743 66.7321 94.943C67.8321 95.143 68.6322 96.243 68.4322 97.343C68.2322 98.443 67.1321 99.243 66.0321 99.043C64.8321 98.843 64.1321 97.743 64.3321 96.643Z" fill="url(#paint15_linear_7978_37559)"/>
      <path d="M48.2326 96.643C48.4326 95.543 49.5325 94.743 50.6325 94.943C51.7325 95.143 52.5325 96.243 52.3325 97.343C52.1325 98.443 51.0326 99.243 49.9326 99.043C48.8326 98.843 48.0326 97.743 48.2326 96.643Z" fill="url(#paint16_linear_7978_37559)"/>
      <path d="M32.2326 96.643C32.4326 95.543 33.5325 94.743 34.6325 94.943C35.7325 95.143 36.5325 96.243 36.3325 97.343C36.1325 98.443 35.0326 99.243 33.9326 99.043C32.7326 98.843 31.9326 97.743 32.2326 96.643Z" fill="url(#paint17_linear_7978_37559)"/>
      <path d="M16.1329 96.643C16.3329 95.543 17.4329 94.743 18.5329 94.943C19.6329 95.143 20.4329 96.243 20.2329 97.343C20.0329 98.443 18.9329 99.243 17.8329 99.043C16.6329 98.843 15.9329 97.743 16.1329 96.643Z" fill="url(#paint18_linear_7978_37559)"/>
      <path d="M0.0313924 96.643C0.231392 95.543 1.33142 94.743 2.43142 94.943C3.53142 95.143 4.33137 96.243 4.13137 97.343C3.93137 98.443 2.83141 99.243 1.73141 99.043C0.631405 98.843 -0.168607 97.743 0.0313924 96.643Z" fill="url(#paint19_linear_7978_37559)"/>
      <path d="M64.3321 83.143C64.5321 82.043 65.6321 81.243 66.7321 81.443C67.8321 81.643 68.6322 82.743 68.4322 83.843C68.2322 84.943 67.1321 85.743 66.0321 85.543C64.8321 85.343 64.1321 84.243 64.3321 83.143Z" fill="url(#paint20_linear_7978_37559)"/>
      <path d="M48.2326 83.143C48.4326 82.043 49.5325 81.243 50.6325 81.443C51.7325 81.643 52.5325 82.743 52.3325 83.843C52.1325 84.943 51.0326 85.743 49.9326 85.543C48.8326 85.343 48.0326 84.243 48.2326 83.143Z" fill="url(#paint21_linear_7978_37559)"/>
      <path d="M32.2326 83.143C32.4326 82.043 33.5325 81.243 34.6325 81.443C35.7325 81.643 36.5325 82.743 36.3325 83.843C36.1325 84.943 35.0326 85.743 33.9326 85.543C32.7326 85.343 31.9326 84.243 32.2326 83.143Z" fill="url(#paint22_linear_7978_37559)"/>
      <path d="M16.1329 83.143C16.3329 82.043 17.4329 81.243 18.5329 81.443C19.6329 81.643 20.4329 82.743 20.2329 83.843C20.0329 84.943 18.9329 85.743 17.8329 85.543C16.6329 85.343 15.9329 84.243 16.1329 83.143Z" fill="url(#paint23_linear_7978_37559)"/>
      <path d="M0.0313924 83.143C0.231392 82.043 1.33142 81.243 2.43142 81.443C3.53142 81.643 4.33137 82.743 4.13137 83.843C3.93137 84.943 2.83141 85.743 1.73141 85.543C0.631405 85.343 -0.168607 84.243 0.0313924 83.143Z" fill="url(#paint24_linear_7978_37559)"/>
      <path d="M64.3321 69.5431C64.5321 68.4431 65.6321 67.6432 66.7321 67.8432C67.8321 68.0432 68.6322 69.1431 68.4322 70.2431C68.2322 71.3431 67.1321 72.1431 66.0321 71.9431C64.8321 71.8431 64.1321 70.7431 64.3321 69.5431Z" fill="url(#paint25_linear_7978_37559)"/>
      <path d="M48.2326 69.5431C48.4326 68.4431 49.5325 67.6432 50.6325 67.8432C51.7325 68.0432 52.5325 69.1431 52.3325 70.2431C52.1325 71.3431 51.0326 72.1431 49.9326 71.9431C48.8326 71.8431 48.0326 70.7431 48.2326 69.5431Z" fill="url(#paint26_linear_7978_37559)"/>
      <path d="M32.2326 69.5431C32.4326 68.4431 33.5325 67.6432 34.6325 67.8432C35.7325 68.0432 36.5325 69.1431 36.3325 70.2431C36.1325 71.3431 35.0326 72.1431 33.9326 71.9431C32.7326 71.8431 31.9326 70.7431 32.2326 69.5431Z" fill="url(#paint27_linear_7978_37559)"/>
      <path d="M16.1329 69.5431C16.3329 68.4431 17.4329 67.6432 18.5329 67.8432C19.6329 68.0432 20.4329 69.1431 20.2329 70.2431C20.0329 71.3431 18.9329 72.1431 17.8329 71.9431C16.6329 71.8431 15.9329 70.7431 16.1329 69.5431Z" fill="url(#paint28_linear_7978_37559)"/>
      <path d="M0.0313924 69.5431C0.231392 68.4431 1.33142 67.6432 2.43142 67.8432C3.53142 68.0432 4.33137 69.1431 4.13137 70.2431C3.93137 71.3431 2.83141 72.1431 1.73141 71.9431C0.631405 71.8431 -0.168607 70.7431 0.0313924 69.5431Z" fill="url(#paint29_linear_7978_37559)"/>
      <path d="M64.3321 56.0431C64.5321 54.9431 65.6321 54.1432 66.7321 54.3432C67.8321 54.5432 68.6322 55.6431 68.4322 56.7431C68.2322 57.8431 67.1321 58.6431 66.0321 58.4431C64.8321 58.2431 64.1321 57.1431 64.3321 56.0431Z" fill="url(#paint30_linear_7978_37559)"/>
      <path d="M48.2326 56.0431C48.4326 54.9431 49.5325 54.1432 50.6325 54.3432C51.7325 54.5432 52.5325 55.6431 52.3325 56.7431C52.1325 57.8431 51.0326 58.6431 49.9326 58.4431C48.8326 58.2431 48.0326 57.1431 48.2326 56.0431Z" fill="url(#paint31_linear_7978_37559)"/>
      <path d="M32.2326 56.0431C32.4326 54.9431 33.5325 54.1432 34.6325 54.3432C35.7325 54.5432 36.5325 55.6431 36.3325 56.7431C36.1325 57.8431 35.0326 58.6431 33.9326 58.4431C32.7326 58.2431 31.9326 57.1431 32.2326 56.0431Z" fill="url(#paint32_linear_7978_37559)"/>
      <path d="M16.1329 56.0431C16.3329 54.9431 17.4329 54.1432 18.5329 54.3432C19.6329 54.5432 20.4329 55.6431 20.2329 56.7431C20.0329 57.8431 18.9329 58.6431 17.8329 58.4431C16.6329 58.2431 15.9329 57.1431 16.1329 56.0431Z" fill="url(#paint33_linear_7978_37559)"/>
      <path d="M0.0313924 56.0431C0.231392 54.9431 1.33142 54.1432 2.43142 54.3432C3.53142 54.5432 4.33137 55.6431 4.13137 56.7431C3.93137 57.8431 2.83141 58.6431 1.73141 58.4431C0.631405 58.2431 -0.168607 57.1431 0.0313924 56.0431Z" fill="url(#paint34_linear_7978_37559)"/>
      <path d="M64.3321 42.5431C64.5321 41.4431 65.6321 40.6432 66.7321 40.8432C67.8321 41.0432 68.6322 42.1431 68.4322 43.2431C68.2322 44.3431 67.1321 45.1431 66.0321 44.9431C64.8321 44.7431 64.1321 43.6431 64.3321 42.5431Z" fill="url(#paint35_linear_7978_37559)"/>
      <path d="M48.2326 42.5431C48.4326 41.4431 49.5325 40.6432 50.6325 40.8432C51.7325 41.0432 52.5325 42.1431 52.3325 43.2431C52.1325 44.3431 51.0326 45.1431 49.9326 44.9431C48.8326 44.7431 48.0326 43.6431 48.2326 42.5431Z" fill="url(#paint36_linear_7978_37559)"/>
      <path d="M32.2326 42.5431C32.4326 41.4431 33.5325 40.6432 34.6325 40.8432C35.7325 41.0432 36.5325 42.1431 36.3325 43.2431C36.1325 44.3431 35.0326 45.1431 33.9326 44.9431C32.7326 44.7431 31.9326 43.6431 32.2326 42.5431Z" fill="url(#paint37_linear_7978_37559)"/>
      <path d="M16.1329 42.5431C16.3329 41.4431 17.4329 40.6432 18.5329 40.8432C19.6329 41.0432 20.4329 42.1431 20.2329 43.2431C20.0329 44.3431 18.9329 45.1431 17.8329 44.9431C16.6329 44.7431 15.9329 43.6431 16.1329 42.5431Z" fill="url(#paint38_linear_7978_37559)"/>
      <path d="M0.0313924 42.5431C0.231392 41.4431 1.33142 40.6432 2.43142 40.8432C3.53142 41.0432 4.33137 42.1431 4.13137 43.2431C3.93137 44.3431 2.83141 45.1431 1.73141 44.9431C0.631405 44.7431 -0.168607 43.6431 0.0313924 42.5431Z" fill="url(#paint39_linear_7978_37559)"/>
      <path d="M64.3321 29.0429C64.5321 27.9429 65.6321 27.1429 66.7321 27.3429C67.8321 27.5429 68.6322 28.6429 68.4322 29.7429C68.2322 30.8429 67.1321 31.6429 66.0321 31.4429C64.8321 31.2429 64.1321 30.1429 64.3321 29.0429Z" fill="url(#paint40_linear_7978_37559)"/>
      <path d="M50.3316 27.2429C49.1718 27.2429 48.2316 28.1831 48.2316 29.3429C48.2316 30.5027 49.1718 31.4429 50.3316 31.4429C51.4914 31.4429 52.4316 30.5027 52.4316 29.3429C52.4316 28.1831 51.4914 27.2429 50.3316 27.2429Z" fill="url(#paint41_linear_7978_37559)"/>
      <path d="M33.9852 27.2828C32.836 27.4393 32.0314 28.4979 32.1879 29.647C32.3445 30.7961 33.403 31.6007 34.5522 31.4441C35.7013 31.2876 36.5059 30.2291 36.3493 29.08C36.1927 27.9309 35.1343 27.1262 33.9852 27.2828Z" fill="url(#paint42_linear_7978_37559)"/>
      <path d="M16.1329 29.0429C16.3329 27.9429 17.4329 27.1429 18.5329 27.3429C19.6329 27.5429 20.4329 28.6429 20.2329 29.7429C20.0329 30.8429 18.9329 31.6429 17.8329 31.4429C16.6329 31.2429 15.9329 30.1429 16.1329 29.0429Z" fill="url(#paint43_linear_7978_37559)"/>
      <path d="M0.0313924 29.0429C0.231392 27.9429 1.33142 27.1429 2.43142 27.3429C3.53142 27.5429 4.33137 28.6429 4.13137 29.7429C3.93137 30.8429 2.83141 31.6429 1.73141 31.4429C0.631405 31.2429 -0.168607 30.1429 0.0313924 29.0429Z" fill="url(#paint44_linear_7978_37559)"/>
      <path d="M64.3321 15.4433C64.5321 14.3433 65.6321 13.5432 66.7321 13.7432C67.8321 13.9432 68.6322 15.0433 68.4322 16.1433C68.2322 17.2433 67.1321 18.0433 66.0321 17.8433C64.8321 17.6433 64.1321 16.6433 64.3321 15.4433Z" fill="url(#paint45_linear_7978_37559)"/>
      <path d="M50.3316 13.7431C49.1718 13.7431 48.2316 14.6833 48.2316 15.8431C48.2316 17.0029 49.1718 17.9431 50.3316 17.9431C51.4914 17.9431 52.4316 17.0029 52.4316 15.8431C52.4316 14.6833 51.4914 13.7431 50.3316 13.7431Z" fill="url(#paint46_linear_7978_37559)"/>
      <path d="M33.991 13.7833C32.8419 13.9398 32.0372 14.9984 32.1938 16.1475C32.3504 17.2966 33.4089 18.1012 34.558 17.9446C35.7071 17.7881 36.5117 16.7296 36.3552 15.5805C36.1986 14.4313 35.1401 13.6267 33.991 13.7833Z" fill="url(#paint47_linear_7978_37559)"/>
      <path d="M16.1329 15.4433C16.3329 14.3433 17.4329 13.5432 18.5329 13.7432C19.6329 13.9432 20.4329 15.0433 20.2329 16.1433C20.0329 17.2433 18.9329 18.0433 17.8329 17.8433C16.6329 17.6433 15.9329 16.6433 16.1329 15.4433Z" fill="url(#paint48_linear_7978_37559)"/>
      <path d="M0.0313924 15.4433C0.231392 14.3433 1.33142 13.5432 2.43142 13.7432C3.53142 13.9432 4.33137 15.0433 4.13137 16.1433C3.93137 17.2433 2.83141 18.0433 1.73141 17.8433C0.631405 17.6433 -0.168607 16.6433 0.0313924 15.4433Z" fill="url(#paint49_linear_7978_37559)"/>
      <path d="M64.3321 1.94326C64.5321 0.84326 65.6321 0.043248 66.7321 0.243248C67.8321 0.443248 68.6322 1.54327 68.4322 2.64327C68.2322 3.74327 67.1321 4.54328 66.0321 4.34328C64.8321 4.14328 64.1321 3.04326 64.3321 1.94326Z" fill="url(#paint50_linear_7978_37559)"/>
      <path d="M50.3316 0.243103C49.1718 0.243103 48.2316 1.18334 48.2316 2.34314C48.2316 3.50294 49.1718 4.44312 50.3316 4.44312C51.4914 4.44312 52.4316 3.50294 52.4316 2.34314C52.4316 1.18334 51.4914 0.243103 50.3316 0.243103Z" fill="url(#paint51_linear_7978_37559)"/>
      <path d="M33.9949 0.283746C32.8458 0.440319 32.0411 1.49884 32.1977 2.64797C32.3543 3.7971 33.4128 4.60169 34.5619 4.44512C35.7111 4.28855 36.5157 3.23009 36.3591 2.08097C36.2025 0.931837 35.144 0.127173 33.9949 0.283746Z" fill="url(#paint52_linear_7978_37559)"/>
      <path d="M16.1329 1.94326C16.3329 0.84326 17.4329 0.043248 18.5329 0.243248C19.6329 0.443248 20.4329 1.54327 20.2329 2.64327C20.0329 3.74327 18.9329 4.54328 17.8329 4.34328C16.6329 4.14328 15.9329 3.04326 16.1329 1.94326Z" fill="url(#paint53_linear_7978_37559)"/>
      <path d="M0.0313924 1.94326C0.231392 0.84326 1.33142 0.043248 2.43142 0.243248C3.53142 0.443248 4.33137 1.54327 4.13137 2.64327C3.93137 3.74327 2.83141 4.54328 1.73141 4.34328C0.631405 4.14328 -0.168607 3.04326 0.0313924 1.94326Z" fill="url(#paint54_linear_7978_37559)"/>
    </g>
    <defs>
      <linearGradient id="paint0_linear_7978_37559" x1="66.3806" y1="139.674" x2="66.3806" y2="135.512" gradientUnits="userSpaceOnUse">
        <stop stop-color="#37AC4E"/>
        <stop offset="1" stop-color="#06CA2C"/>
      </linearGradient>
      <linearGradient id="paint1_linear_7978_37559" x1="50.2826" y1="139.674" x2="50.2826" y2="135.512" gradientUnits="userSpaceOnUse">
        <stop stop-color="#37AC4E"/>
        <stop offset="1" stop-color="#06CA2C"/>
      </linearGradient>
      <linearGradient id="paint2_linear_7978_37559" x1="34.2663" y1="139.674" x2="34.2663" y2="135.512" gradientUnits="userSpaceOnUse">
        <stop stop-color="#37AC4E"/>
        <stop offset="1" stop-color="#06CA2C"/>
      </linearGradient>
      <linearGradient id="paint3_linear_7978_37559" x1="18.1813" y1="139.674" x2="18.1813" y2="135.512" gradientUnits="userSpaceOnUse">
        <stop stop-color="#37AC4E"/>
        <stop offset="1" stop-color="#06CA2C"/>
      </linearGradient>
      <linearGradient id="paint4_linear_7978_37559" x1="2.08138" y1="139.674" x2="2.08138" y2="135.512" gradientUnits="userSpaceOnUse">
        <stop stop-color="#37AC4E"/>
        <stop offset="1" stop-color="#06CA2C"/>
      </linearGradient>
      <linearGradient id="paint5_linear_7978_37559" x1="66.3806" y1="126.174" x2="66.3806" y2="122.012" gradientUnits="userSpaceOnUse">
        <stop stop-color="#37AC4E"/>
        <stop offset="1" stop-color="#06CA2C"/>
      </linearGradient>
      <linearGradient id="paint6_linear_7978_37559" x1="50.2826" y1="126.174" x2="50.2826" y2="122.012" gradientUnits="userSpaceOnUse">
        <stop stop-color="#37AC4E"/>
        <stop offset="1" stop-color="#06CA2C"/>
      </linearGradient>
      <linearGradient id="paint7_linear_7978_37559" x1="34.2663" y1="126.174" x2="34.2663" y2="122.012" gradientUnits="userSpaceOnUse">
        <stop stop-color="#37AC4E"/>
        <stop offset="1" stop-color="#06CA2C"/>
      </linearGradient>
      <linearGradient id="paint8_linear_7978_37559" x1="18.1813" y1="126.174" x2="18.1813" y2="122.012" gradientUnits="userSpaceOnUse">
        <stop stop-color="#37AC4E"/>
        <stop offset="1" stop-color="#06CA2C"/>
      </linearGradient>
      <linearGradient id="paint9_linear_7978_37559" x1="2.08138" y1="126.174" x2="2.08138" y2="122.012" gradientUnits="userSpaceOnUse">
        <stop stop-color="#37AC4E"/>
        <stop offset="1" stop-color="#06CA2C"/>
      </linearGradient>
      <linearGradient id="paint10_linear_7978_37559" x1="66.3806" y1="112.574" x2="66.3806" y2="108.412" gradientUnits="userSpaceOnUse">
        <stop stop-color="#37AC4E"/>
        <stop offset="1" stop-color="#06CA2C"/>
      </linearGradient>
      <linearGradient id="paint11_linear_7978_37559" x1="50.2826" y1="112.574" x2="50.2826" y2="108.412" gradientUnits="userSpaceOnUse">
        <stop stop-color="#37AC4E"/>
        <stop offset="1" stop-color="#06CA2C"/>
      </linearGradient>
      <linearGradient id="paint12_linear_7978_37559" x1="34.2663" y1="112.574" x2="34.2663" y2="108.412" gradientUnits="userSpaceOnUse">
        <stop stop-color="#37AC4E"/>
        <stop offset="1" stop-color="#06CA2C"/>
      </linearGradient>
      <linearGradient id="paint13_linear_7978_37559" x1="18.1813" y1="112.574" x2="18.1813" y2="108.412" gradientUnits="userSpaceOnUse">
        <stop stop-color="#37AC4E"/>
        <stop offset="1" stop-color="#06CA2C"/>
      </linearGradient>
      <linearGradient id="paint14_linear_7978_37559" x1="2.08138" y1="112.574" x2="2.08138" y2="108.412" gradientUnits="userSpaceOnUse">
        <stop stop-color="#37AC4E"/>
        <stop offset="1" stop-color="#06CA2C"/>
      </linearGradient>
      <linearGradient id="paint15_linear_7978_37559" x1="66.3806" y1="99.0737" x2="66.3806" y2="94.9123" gradientUnits="userSpaceOnUse">
        <stop stop-color="#37AC4E"/>
        <stop offset="1" stop-color="#06CA2C"/>
      </linearGradient>
      <linearGradient id="paint16_linear_7978_37559" x1="50.2826" y1="99.0737" x2="50.2826" y2="94.9123" gradientUnits="userSpaceOnUse">
        <stop stop-color="#37AC4E"/>
        <stop offset="1" stop-color="#06CA2C"/>
      </linearGradient>
      <linearGradient id="paint17_linear_7978_37559" x1="34.2663" y1="99.0737" x2="34.2663" y2="94.9123" gradientUnits="userSpaceOnUse">
        <stop stop-color="#37AC4E"/>
        <stop offset="1" stop-color="#06CA2C"/>
      </linearGradient>
      <linearGradient id="paint18_linear_7978_37559" x1="18.1813" y1="99.0737" x2="18.1813" y2="94.9123" gradientUnits="userSpaceOnUse">
        <stop stop-color="#37AC4E"/>
        <stop offset="1" stop-color="#06CA2C"/>
      </linearGradient>
      <linearGradient id="paint19_linear_7978_37559" x1="2.08138" y1="99.0737" x2="2.08138" y2="94.9123" gradientUnits="userSpaceOnUse">
        <stop stop-color="#37AC4E"/>
        <stop offset="1" stop-color="#06CA2C"/>
      </linearGradient>
      <linearGradient id="paint20_linear_7978_37559" x1="66.3806" y1="85.5737" x2="66.3806" y2="81.4123" gradientUnits="userSpaceOnUse">
        <stop stop-color="#37AC4E"/>
        <stop offset="1" stop-color="#06CA2C"/>
      </linearGradient>
      <linearGradient id="paint21_linear_7978_37559" x1="50.2826" y1="85.5737" x2="50.2826" y2="81.4123" gradientUnits="userSpaceOnUse">
        <stop stop-color="#37AC4E"/>
        <stop offset="1" stop-color="#06CA2C"/>
      </linearGradient>
      <linearGradient id="paint22_linear_7978_37559" x1="34.2663" y1="85.5737" x2="34.2663" y2="81.4123" gradientUnits="userSpaceOnUse">
        <stop stop-color="#37AC4E"/>
        <stop offset="1" stop-color="#06CA2C"/>
      </linearGradient>
      <linearGradient id="paint23_linear_7978_37559" x1="18.1813" y1="85.5737" x2="18.1813" y2="81.4123" gradientUnits="userSpaceOnUse">
        <stop stop-color="#37AC4E"/>
        <stop offset="1" stop-color="#06CA2C"/>
      </linearGradient>
      <linearGradient id="paint24_linear_7978_37559" x1="2.08138" y1="85.5737" x2="2.08138" y2="81.4123" gradientUnits="userSpaceOnUse">
        <stop stop-color="#37AC4E"/>
        <stop offset="1" stop-color="#06CA2C"/>
      </linearGradient>
      <linearGradient id="paint25_linear_7978_37559" x1="66.3806" y1="71.9739" x2="66.3806" y2="67.8124" gradientUnits="userSpaceOnUse">
        <stop stop-color="#37AC4E"/>
        <stop offset="1" stop-color="#06CA2C"/>
      </linearGradient>
      <linearGradient id="paint26_linear_7978_37559" x1="50.2826" y1="71.9739" x2="50.2826" y2="67.8124" gradientUnits="userSpaceOnUse">
        <stop stop-color="#37AC4E"/>
        <stop offset="1" stop-color="#06CA2C"/>
      </linearGradient>
      <linearGradient id="paint27_linear_7978_37559" x1="34.2663" y1="71.9739" x2="34.2663" y2="67.8124" gradientUnits="userSpaceOnUse">
        <stop stop-color="#37AC4E"/>
        <stop offset="1" stop-color="#06CA2C"/>
      </linearGradient>
      <linearGradient id="paint28_linear_7978_37559" x1="18.1813" y1="71.9739" x2="18.1813" y2="67.8124" gradientUnits="userSpaceOnUse">
        <stop stop-color="#37AC4E"/>
        <stop offset="1" stop-color="#06CA2C"/>
      </linearGradient>
      <linearGradient id="paint29_linear_7978_37559" x1="2.08138" y1="71.9739" x2="2.08138" y2="67.8124" gradientUnits="userSpaceOnUse">
        <stop stop-color="#37AC4E"/>
        <stop offset="1" stop-color="#06CA2C"/>
      </linearGradient>
      <linearGradient id="paint30_linear_7978_37559" x1="66.3806" y1="58.4739" x2="66.3806" y2="54.3124" gradientUnits="userSpaceOnUse">
        <stop stop-color="#37AC4E"/>
        <stop offset="1" stop-color="#06CA2C"/>
      </linearGradient>
      <linearGradient id="paint31_linear_7978_37559" x1="50.2826" y1="58.4739" x2="50.2826" y2="54.3124" gradientUnits="userSpaceOnUse">
        <stop stop-color="#37AC4E"/>
        <stop offset="1" stop-color="#06CA2C"/>
      </linearGradient>
      <linearGradient id="paint32_linear_7978_37559" x1="34.2663" y1="58.4739" x2="34.2663" y2="54.3124" gradientUnits="userSpaceOnUse">
        <stop stop-color="#37AC4E"/>
        <stop offset="1" stop-color="#06CA2C"/>
      </linearGradient>
      <linearGradient id="paint33_linear_7978_37559" x1="18.1813" y1="58.4739" x2="18.1813" y2="54.3124" gradientUnits="userSpaceOnUse">
        <stop stop-color="#37AC4E"/>
        <stop offset="1" stop-color="#06CA2C"/>
      </linearGradient>
      <linearGradient id="paint34_linear_7978_37559" x1="2.08138" y1="58.4739" x2="2.08138" y2="54.3124" gradientUnits="userSpaceOnUse">
        <stop stop-color="#37AC4E"/>
        <stop offset="1" stop-color="#06CA2C"/>
      </linearGradient>
      <linearGradient id="paint35_linear_7978_37559" x1="66.3806" y1="44.9739" x2="66.3806" y2="40.8124" gradientUnits="userSpaceOnUse">
        <stop stop-color="#37AC4E"/>
        <stop offset="1" stop-color="#06CA2C"/>
      </linearGradient>
      <linearGradient id="paint36_linear_7978_37559" x1="50.2826" y1="44.9739" x2="50.2826" y2="40.8124" gradientUnits="userSpaceOnUse">
        <stop stop-color="#37AC4E"/>
        <stop offset="1" stop-color="#06CA2C"/>
      </linearGradient>
      <linearGradient id="paint37_linear_7978_37559" x1="34.2663" y1="44.9739" x2="34.2663" y2="40.8124" gradientUnits="userSpaceOnUse">
        <stop stop-color="#37AC4E"/>
        <stop offset="1" stop-color="#06CA2C"/>
      </linearGradient>
      <linearGradient id="paint38_linear_7978_37559" x1="18.1813" y1="44.9739" x2="18.1813" y2="40.8124" gradientUnits="userSpaceOnUse">
        <stop stop-color="#37AC4E"/>
        <stop offset="1" stop-color="#06CA2C"/>
      </linearGradient>
      <linearGradient id="paint39_linear_7978_37559" x1="2.08138" y1="44.9739" x2="2.08138" y2="40.8124" gradientUnits="userSpaceOnUse">
        <stop stop-color="#37AC4E"/>
        <stop offset="1" stop-color="#06CA2C"/>
      </linearGradient>
      <linearGradient id="paint40_linear_7978_37559" x1="66.3806" y1="31.4736" x2="66.3806" y2="27.3122" gradientUnits="userSpaceOnUse">
        <stop stop-color="#37AC4E"/>
        <stop offset="1" stop-color="#06CA2C"/>
      </linearGradient>
      <linearGradient id="paint41_linear_7978_37559" x1="50.3316" y1="31.4429" x2="50.3316" y2="27.2429" gradientUnits="userSpaceOnUse">
        <stop stop-color="#37AC4E"/>
        <stop offset="1" stop-color="#06CA2C"/>
      </linearGradient>
      <linearGradient id="paint42_linear_7978_37559" x1="34.5521" y1="31.4441" x2="33.9851" y2="27.2828" gradientUnits="userSpaceOnUse">
        <stop stop-color="#37AC4E"/>
        <stop offset="1" stop-color="#06CA2C"/>
      </linearGradient>
      <linearGradient id="paint43_linear_7978_37559" x1="18.1813" y1="31.4736" x2="18.1813" y2="27.3122" gradientUnits="userSpaceOnUse">
        <stop stop-color="#37AC4E"/>
        <stop offset="1" stop-color="#06CA2C"/>
      </linearGradient>
      <linearGradient id="paint44_linear_7978_37559" x1="2.08138" y1="31.4736" x2="2.08138" y2="27.3122" gradientUnits="userSpaceOnUse">
        <stop stop-color="#37AC4E"/>
        <stop offset="1" stop-color="#06CA2C"/>
      </linearGradient>
      <linearGradient id="paint45_linear_7978_37559" x1="66.3806" y1="17.874" x2="66.3806" y2="13.7125" gradientUnits="userSpaceOnUse">
        <stop stop-color="#37AC4E"/>
        <stop offset="1" stop-color="#06CA2C"/>
      </linearGradient>
      <linearGradient id="paint46_linear_7978_37559" x1="50.3316" y1="17.9431" x2="50.3316" y2="13.7431" gradientUnits="userSpaceOnUse">
        <stop stop-color="#37AC4E"/>
        <stop offset="1" stop-color="#06CA2C"/>
      </linearGradient>
      <linearGradient id="paint47_linear_7978_37559" x1="34.558" y1="17.9446" x2="33.991" y2="13.7833" gradientUnits="userSpaceOnUse">
        <stop stop-color="#37AC4E"/>
        <stop offset="1" stop-color="#06CA2C"/>
      </linearGradient>
      <linearGradient id="paint48_linear_7978_37559" x1="18.1813" y1="17.874" x2="18.1813" y2="13.7125" gradientUnits="userSpaceOnUse">
        <stop stop-color="#37AC4E"/>
        <stop offset="1" stop-color="#06CA2C"/>
      </linearGradient>
      <linearGradient id="paint49_linear_7978_37559" x1="2.08138" y1="17.874" x2="2.08138" y2="13.7125" gradientUnits="userSpaceOnUse">
        <stop stop-color="#37AC4E"/>
        <stop offset="1" stop-color="#06CA2C"/>
      </linearGradient>
      <linearGradient id="paint50_linear_7978_37559" x1="66.3806" y1="4.37402" x2="66.3806" y2="0.212509" gradientUnits="userSpaceOnUse">
        <stop stop-color="#37AC4E"/>
        <stop offset="1" stop-color="#06CA2C"/>
      </linearGradient>
      <linearGradient id="paint51_linear_7978_37559" x1="50.3316" y1="4.44312" x2="50.3316" y2="0.243103" gradientUnits="userSpaceOnUse">
        <stop stop-color="#37AC4E"/>
        <stop offset="1" stop-color="#06CA2C"/>
      </linearGradient>
      <linearGradient id="paint52_linear_7978_37559" x1="34.5619" y1="4.44512" x2="33.9949" y2="0.28375" gradientUnits="userSpaceOnUse">
        <stop stop-color="#37AC4E"/>
        <stop offset="1" stop-color="#06CA2C"/>
      </linearGradient>
      <linearGradient id="paint53_linear_7978_37559" x1="18.1813" y1="4.37402" x2="18.1813" y2="0.212509" gradientUnits="userSpaceOnUse">
        <stop stop-color="#37AC4E"/>
        <stop offset="1" stop-color="#06CA2C"/>
      </linearGradient>
      <linearGradient id="paint54_linear_7978_37559" x1="2.08138" y1="4.37402" x2="2.08138" y2="0.212509" gradientUnits="userSpaceOnUse">
        <stop stop-color="#37AC4E"/>
        <stop offset="1" stop-color="#06CA2C"/>
      </linearGradient>
    </defs>
  </svg>