<svg width="7" height="7" viewBox="0 0 7 7" fill="none" xmlns="http://www.w3.org/2000/svg">
<path d="M5.99315 4.31934L3.32246 6.89746C3.24828 6.96582 3.15819 7 3.05221 7C2.94624 7 2.85615 6.96582 2.78197 6.89746L0.111279 4.31934C-0.0370929 4.14355 -0.0370929 3.97754 0.111279 3.82129C0.302042 3.68457 0.482208 3.68457 0.651775 3.82129L2.67069 5.76953V0.789062C2.69188 0.574219 2.81376 0.457031 3.03632 0.4375C3.1423 0.4375 3.23238 0.47168 3.30657 0.540039C3.39135 0.608398 3.43374 0.691406 3.43374 0.789062V5.76953L5.45265 3.82129C5.62222 3.68457 5.80239 3.68457 5.99315 3.82129C6.14152 3.97754 6.14152 4.14355 5.99315 4.31934Z" fill="#37AA4C"/>
</svg>
