<svg width="65" height="52" viewBox="0 0 65 52" fill="none" xmlns="http://www.w3.org/2000/svg">
<path d="M63.4618 5.57105C62.6293 4.58688 61.4634 3.98573 60.1786 3.87843L14.9288 0.100136C13.644 -0.00716583 12.3948 0.3923 11.4105 1.22474C10.4302 2.05392 9.82991 3.21391 9.71922 4.49238L8.80885 13.0334H5.17375C2.51265 13.0334 0.347656 15.1984 0.347656 17.8595V46.185C0.347656 48.8461 2.51265 51.0111 5.17375 51.0111H50.5812C53.2424 51.0111 55.4074 48.8461 55.4074 46.185V41.5901L57.0187 41.7246C57.1546 41.7359 57.2898 41.7416 57.4238 41.7416C59.9047 41.7416 62.0196 39.8328 62.2297 37.3168L64.5867 9.08955C64.6939 7.80481 64.2944 6.55534 63.4618 5.57105ZM5.17375 15.5434H50.5812C51.8583 15.5434 52.8974 16.5824 52.8974 17.8595V20.4405H2.85765V17.8595C2.85765 16.5824 3.89666 15.5434 5.17375 15.5434ZM2.85765 22.9505H52.8974V28.1574H2.85765V22.9505ZM50.5812 48.5011H5.17375C3.89666 48.5011 2.85765 47.4621 2.85765 46.185V30.6673H52.8974V46.185C52.8974 47.4621 51.8583 48.5011 50.5812 48.5011ZM62.0854 8.8806L59.7283 37.1079C59.622 38.3806 58.5 39.33 57.2275 39.2233L55.4074 39.0713V17.8595C55.4074 15.1984 53.2424 13.0334 50.5812 13.0334H11.3331L12.2165 4.74538C12.2175 4.73584 12.2184 4.72643 12.2192 4.71677C12.3255 3.44408 13.4469 2.4948 14.72 2.60147L59.9699 6.37977C60.5865 6.43122 61.1461 6.71974 61.5456 7.19213C61.945 7.66451 62.1368 8.26402 62.0854 8.8806Z" fill="url(#paint0_linear_7978_37016)"/>
<path d="M47.6456 34.3984H35.5673C34.8741 34.3984 34.3123 34.9603 34.3123 35.6534V43.5335C34.3123 44.2266 34.8741 44.7885 35.5673 44.7885H47.6456C48.3388 44.7885 48.9006 44.2266 48.9006 43.5335V35.6534C48.9006 34.9603 48.3388 34.3984 47.6456 34.3984ZM46.3906 42.2785H36.8223V36.9084H46.3906V42.2785Z" fill="url(#paint1_linear_7978_37016)"/>
<defs>
<linearGradient id="paint0_linear_7978_37016" x1="32.4757" y1="0.0830078" x2="32.4757" y2="51.0111" gradientUnits="userSpaceOnUse">
<stop stop-color="#37AC4E"/>
<stop offset="1" stop-color="#06CA2C"/>
</linearGradient>
<linearGradient id="paint1_linear_7978_37016" x1="41.6065" y1="34.3984" x2="41.6065" y2="44.7885" gradientUnits="userSpaceOnUse">
<stop stop-color="#37AC4E"/>
<stop offset="1" stop-color="#06CA2C"/>
</linearGradient>
</defs>
</svg>
