<svg width="65" height="43" viewBox="0 0 65 43" fill="none" xmlns="http://www.w3.org/2000/svg">
<path d="M15.5135 15.9366C15.3968 15.0315 15.8487 14.0687 16.3596 13.4799C16.9282 12.7908 17.9111 12.2999 18.717 12.2598C18.8149 13.2038 18.4421 14.1277 17.891 14.8156C17.3211 15.4846 16.4186 16.0144 15.5135 15.9366ZM22.0373 23.9743C22.0172 24.0333 21.7047 25.1116 20.9402 26.2288C20.2736 27.2092 19.5882 28.1695 18.4911 28.1896C17.4329 28.2097 17.0801 27.5619 15.865 27.5619C14.6499 27.5619 14.2582 28.1695 13.259 28.2097C12.2008 28.2486 11.3986 27.169 10.732 26.1899C9.36 24.209 8.32186 20.6025 9.73283 18.171C10.4182 16.9559 11.6723 16.1914 13.0242 16.1713C14.0624 16.1525 15.0227 16.8579 15.6503 16.8579C16.2767 16.8579 17.3927 16.0345 18.7057 16.1135C19.2154 16.1525 20.6854 16.3094 21.6256 17.7003C21.5477 17.7605 19.882 18.7208 19.902 20.7393C19.9209 23.1508 22.0172 23.9542 22.0373 23.9743ZM30.1378 13.3808H24.6245V28.0866H26.9066V23.0629H30.0662C32.9509 23.0629 34.9782 21.0858 34.9782 18.2112C34.9782 15.3478 32.9923 13.3808 30.1378 13.3808ZM29.5265 21.1461H26.9066V15.3064H29.5365C31.5136 15.3064 32.6446 16.3671 32.6446 18.2212C32.6446 20.0765 31.5136 21.1461 29.5265 21.1461ZM40.4263 17.1718C37.7763 17.1718 36.1256 18.5991 36.0038 20.5347H38.0826C38.2759 19.5769 39.0705 18.9656 40.3447 18.9656C41.6903 18.9656 42.495 19.6786 42.495 20.8711V21.6971L39.5601 21.8704C37.0118 22.0135 35.5758 23.1646 35.5758 25.04C35.5758 26.9656 37.0432 28.2712 39.1421 28.2712C40.5493 28.2712 41.905 27.5167 42.5264 26.3242H42.5766V28.0866H44.6868V20.6979C44.6868 18.5476 43.026 17.1718 40.4263 17.1718ZM42.495 24.0722C42.495 25.4681 41.2924 26.5275 39.7534 26.5275C38.5722 26.5275 37.7977 25.9162 37.7977 24.9785C37.7977 24.0621 38.5408 23.4809 39.8551 23.3893L42.495 23.2261V24.0722ZM53.4664 17.3651H55.7899L51.7742 28.6478C50.8566 31.2462 49.7971 32.0823 47.5752 32.0823C47.3919 32.0823 46.8409 32.0622 46.6789 32.0321V30.2483C46.8409 30.2884 47.2074 30.2884 47.3919 30.2884C48.4112 30.2884 48.9611 29.8604 49.2975 28.7595C49.2975 28.7394 49.4908 28.108 49.4908 28.0979L45.6182 17.3651H48.0033L50.7147 26.0894H50.7549L53.4664 17.3651Z" fill="url(#paint0_linear_7978_37034)"/>
<path d="M64.6028 6.07471C64.5973 5.09105 64.5689 4.05781 64.1095 3.16366C63.7386 2.44173 63.144 1.84308 62.4211 1.47402C61.5195 1.0137 60.4993 0.98646 59.5088 0.980686C59.2891 0.97943 59.0694 0.97943 58.8497 0.97943H6.10438C5.29847 0.97943 4.478 0.953194 3.68164 1.09617C2.88276 1.23991 2.13034 1.61047 1.5539 2.18452C0.977088 2.75895 0.608656 3.51552 0.465551 4.31226C0.322321 5.109 0.350063 5.92872 0.350063 6.735V36.3614C0.350063 36.5811 0.348808 36.8008 0.350063 37.0205C0.355712 38.0084 0.384961 39.0331 0.843398 39.9315C1.21195 40.6539 1.80935 41.2542 2.53304 41.6211C3.43447 42.0781 4.45704 42.1018 5.44534 42.1132C5.66376 42.1157 5.8847 42.1157 6.10438 42.1157H58.8497C59.0694 42.1157 59.2891 42.1157 59.5088 42.1132C60.489 42.102 61.5157 42.0815 62.4211 41.6211C63.143 41.2541 63.7433 40.6537 64.1095 39.9315C64.5648 39.0333 64.5971 38.0065 64.6028 37.0205C64.604 36.8008 64.604 36.5811 64.604 36.3614V6.735C64.604 6.51406 64.604 6.29439 64.6028 6.07471ZM63.2333 36.3614C63.2333 36.5773 63.2332 36.7932 63.232 37.0142C63.2276 37.78 63.2435 38.6102 62.888 39.3101C62.648 39.7789 62.2663 40.1602 61.7972 40.3997C61.0965 40.7559 60.2651 40.738 59.4987 40.7424C59.2828 40.7437 59.0656 40.7437 58.8497 40.7437H6.09559C5.88219 40.7437 5.66879 40.7437 5.45162 40.7424C4.684 40.7369 3.85462 40.7552 3.15316 40.3972C2.68756 40.1595 2.30206 39.7771 2.06606 39.3101C1.71119 38.608 1.72763 37.7802 1.72211 37.0129L1.72085 36.497V6.59817L1.72211 6.08475C1.72337 5.90901 1.72462 5.73326 1.72964 5.55752C1.74671 4.95975 1.79078 4.32569 2.06606 3.78378C2.30168 3.32007 2.69033 2.9313 3.15429 2.69669C3.70185 2.41989 4.32448 2.37734 4.92703 2.36014C5.10277 2.35512 5.27851 2.35386 5.453 2.35261L6.1045 2.35135H58.8499L59.4989 2.35261C60.2648 2.35411 61.1001 2.34068 61.7998 2.69656C62.2667 2.93381 62.65 3.32007 62.8882 3.78616C63.2454 4.48549 63.2277 5.32014 63.2321 6.08588C63.2334 6.30179 63.2334 6.5177 63.2334 6.73487V36.3614H63.2333Z" fill="url(#paint1_linear_7978_37034)"/>
<path d="M15.5135 15.9366C15.3968 15.0315 15.8487 14.0687 16.3596 13.4799C16.9282 12.7908 17.9111 12.2999 18.717 12.2598C18.8149 13.2038 18.4421 14.1277 17.891 14.8156C17.3211 15.4846 16.4186 16.0144 15.5135 15.9366ZM22.0373 23.9743C22.0172 24.0333 21.7047 25.1116 20.9402 26.2288C20.2736 27.2092 19.5882 28.1695 18.4911 28.1896C17.4329 28.2097 17.0801 27.5619 15.865 27.5619C14.6499 27.5619 14.2582 28.1695 13.259 28.2097C12.2008 28.2486 11.3986 27.169 10.732 26.1899C9.36 24.209 8.32186 20.6025 9.73283 18.171C10.4182 16.9559 11.6723 16.1914 13.0242 16.1713C14.0624 16.1525 15.0227 16.8579 15.6503 16.8579C16.2767 16.8579 17.3927 16.0345 18.7057 16.1135C19.2154 16.1525 20.6854 16.3094 21.6256 17.7003C21.5477 17.7605 19.882 18.7208 19.902 20.7393C19.9209 23.1508 22.0172 23.9542 22.0373 23.9743ZM30.1378 13.3808H24.6245V28.0866H26.9066V23.0629H30.0662C32.9509 23.0629 34.9782 21.0858 34.9782 18.2112C34.9782 15.3478 32.9923 13.3808 30.1378 13.3808ZM29.5265 21.1461H26.9066V15.3064H29.5365C31.5136 15.3064 32.6446 16.3671 32.6446 18.2212C32.6446 20.0765 31.5136 21.1461 29.5265 21.1461ZM40.4263 17.1718C37.7763 17.1718 36.1256 18.5991 36.0038 20.5347H38.0826C38.2759 19.5769 39.0705 18.9656 40.3447 18.9656C41.6903 18.9656 42.495 19.6786 42.495 20.8711V21.6971L39.5601 21.8704C37.0118 22.0135 35.5758 23.1646 35.5758 25.04C35.5758 26.9656 37.0432 28.2712 39.1421 28.2712C40.5493 28.2712 41.905 27.5167 42.5264 26.3242H42.5766V28.0866H44.6868V20.6979C44.6868 18.5476 43.026 17.1718 40.4263 17.1718ZM42.495 24.0722C42.495 25.4681 41.2924 26.5275 39.7534 26.5275C38.5722 26.5275 37.7977 25.9162 37.7977 24.9785C37.7977 24.0621 38.5408 23.4809 39.8551 23.3893L42.495 23.2261V24.0722ZM55.7899 17.3651L51.7742 28.6478C50.8566 31.2462 49.7971 32.0823 47.5752 32.0823C47.3919 32.0823 46.8409 32.0622 46.6789 32.0321V30.2483C46.8409 30.2884 47.2074 30.2884 47.3919 30.2884C48.4112 30.2884 48.9611 29.8604 49.2975 28.7595C49.2975 28.7394 49.4908 28.108 49.4908 28.0979L45.6182 17.3651H48.0033L50.7147 26.0894H50.7549L53.4664 17.3651H55.7899Z" fill="url(#paint2_linear_7978_37034)"/>
<path d="M17.891 14.8156C17.3211 15.4846 16.4186 16.0144 15.5135 15.9366C15.3968 15.0315 15.8487 14.0687 16.3596 13.4799C16.9282 12.7908 17.9111 12.2999 18.717 12.2598C18.8149 13.2038 18.4421 14.1277 17.891 14.8156ZM22.0373 23.9743C22.0172 24.0333 21.7047 25.1116 20.9402 26.2288C20.2736 27.2092 19.5882 28.1695 18.4911 28.1896C17.4329 28.2097 17.0801 27.5619 15.865 27.5619C14.6499 27.5619 14.2582 28.1695 13.259 28.2097C12.2008 28.2486 11.3986 27.169 10.732 26.1899C9.36 24.209 8.32186 20.6025 9.73283 18.171C10.4182 16.9559 11.6723 16.1914 13.0242 16.1713C14.0624 16.1525 15.0227 16.8579 15.6503 16.8579C16.2767 16.8579 17.3927 16.0345 18.7057 16.1135C19.2154 16.1525 20.6854 16.3094 21.6256 17.7003C21.5477 17.7605 19.882 18.7208 19.902 20.7393C19.9209 23.1508 22.0172 23.9542 22.0373 23.9743ZM30.1378 13.3808H24.6245V28.0866H26.9066V23.0629H30.0662C32.9509 23.0629 34.9782 21.0858 34.9782 18.2112C34.9782 15.3478 32.9923 13.3808 30.1378 13.3808ZM29.5265 21.1461H26.9066V15.3064H29.5365C31.5136 15.3064 32.6446 16.3671 32.6446 18.2212C32.6446 20.0765 31.5136 21.1461 29.5265 21.1461ZM40.4263 17.1718C37.7763 17.1718 36.1256 18.5991 36.0038 20.5347H38.0826C38.2759 19.5769 39.0705 18.9656 40.3447 18.9656C41.6903 18.9656 42.495 19.6786 42.495 20.8711V21.6971L39.5601 21.8704C37.0118 22.0135 35.5758 23.1646 35.5758 25.04C35.5758 26.9656 37.0432 28.2712 39.1421 28.2712C40.5493 28.2712 41.905 27.5167 42.5264 26.3242H42.5766V28.0866H44.6868V20.6979C44.6868 18.5476 43.026 17.1718 40.4263 17.1718ZM42.495 24.0722C42.495 25.4681 41.2924 26.5275 39.7534 26.5275C38.5722 26.5275 37.7977 25.9162 37.7977 24.9785C37.7977 24.0621 38.5408 23.4809 39.8551 23.3893L42.495 23.2261V24.0722ZM53.4664 17.3651L50.7549 26.0894H50.7147L48.0033 17.3651H45.6182L49.4908 28.0979C49.4908 28.108 49.2975 28.7394 49.2975 28.7595C48.9611 29.8604 48.4112 30.2884 47.3919 30.2884C47.2074 30.2884 46.8409 30.2884 46.6789 30.2483V32.0321C46.8409 32.0622 47.3919 32.0823 47.5752 32.0823C49.7971 32.0823 50.8566 31.2462 51.7742 28.6478L55.7899 17.3651H53.4664Z" fill="url(#paint3_linear_7978_37034)"/>
<defs>
<linearGradient id="paint0_linear_7978_37034" x1="32.4249" y1="12.2598" x2="32.4249" y2="32.0823" gradientUnits="userSpaceOnUse">
<stop stop-color="#37AC4E"/>
<stop offset="1" stop-color="#06CA2C"/>
</linearGradient>
<linearGradient id="paint1_linear_7978_37034" x1="32.476" y1="0.977539" x2="32.476" y2="42.1157" gradientUnits="userSpaceOnUse">
<stop stop-color="#37AC4E"/>
<stop offset="1" stop-color="#06CA2C"/>
</linearGradient>
<linearGradient id="paint2_linear_7978_37034" x1="32.4249" y1="12.2598" x2="32.4249" y2="32.0823" gradientUnits="userSpaceOnUse">
<stop stop-color="#37AC4E"/>
<stop offset="1" stop-color="#06CA2C"/>
</linearGradient>
<linearGradient id="paint3_linear_7978_37034" x1="32.4249" y1="12.2598" x2="32.4249" y2="32.0823" gradientUnits="userSpaceOnUse">
<stop stop-color="#37AC4E"/>
<stop offset="1" stop-color="#06CA2C"/>
</linearGradient>
</defs>
</svg>
