<svg width="43" height="43" viewBox="0 0 43 43" fill="none" xmlns="http://www.w3.org/2000/svg">
<path d="M21.2831 17.2397C20.7535 17.2397 20.229 17.3439 19.7396 17.5466C19.2503 17.7492 18.8056 18.0463 18.4311 18.4208C18.0566 18.7954 17.7595 19.24 17.5568 19.7294C17.3542 20.2187 17.2499 20.7432 17.25 21.2729C17.2499 21.8025 17.3542 22.327 17.5568 22.8164C17.7595 23.3058 18.0566 23.7504 18.4311 24.1249C18.8056 24.4995 19.2503 24.7965 19.7396 24.9992C20.229 25.2018 20.7535 25.3061 21.2831 25.306C21.8128 25.3061 22.3373 25.2018 22.8266 24.9992C23.316 24.7965 23.7606 24.4995 24.1352 24.1249C24.5097 23.7504 24.8068 23.3058 25.0094 22.8164C25.2121 22.327 25.3163 21.8025 25.3163 21.2729C25.3163 20.7432 25.2121 20.2187 25.0094 19.7294C24.8068 19.24 24.5097 18.7954 24.1352 18.4208C23.7606 18.0463 23.316 17.7492 22.8266 17.5466C22.3373 17.3439 21.8128 17.2397 21.2831 17.2397ZM21.2831 23.8907C20.7656 23.8905 20.2597 23.737 19.8294 23.4493C19.3991 23.1617 19.0637 22.753 18.8657 22.2748C18.6677 21.7966 18.616 21.2704 18.717 20.7628C18.818 20.2552 19.0672 19.7889 19.4332 19.4229C19.7992 19.057 20.2654 18.8077 20.773 18.7067C21.2807 18.6057 21.8068 18.6575 22.285 18.8555C22.7632 19.0535 23.172 19.3888 23.4596 19.8191C23.7472 20.2494 23.9008 20.7553 23.9009 21.2729C23.9011 21.6167 23.8335 21.9572 23.702 22.2749C23.5705 22.5926 23.3777 22.8812 23.1346 23.1243C22.8915 23.3674 22.6028 23.5603 22.2851 23.6918C21.9674 23.8233 21.627 23.8909 21.2831 23.8907Z" fill="url(#paint0_linear_8405_12738)"/>
<path d="M24.519 13.4688C23.0729 13.4013 19.4911 13.4046 18.0436 13.4688C16.7717 13.5284 15.6498 13.8356 14.7454 14.74C13.2337 16.2517 13.427 18.2885 13.427 21.2757C13.427 24.333 13.2567 26.3227 14.7454 27.8114C16.2629 29.3282 18.3292 29.1298 21.281 29.1298C24.3095 29.1298 25.3547 29.1317 26.4256 28.7172C27.8815 28.1519 28.9805 26.8506 29.0879 24.5131C29.156 23.0663 29.1521 19.4851 29.0879 18.0377C28.9582 15.2784 27.4774 13.605 24.519 13.4688ZM26.8081 26.8113C25.8171 27.8022 24.4424 27.7138 21.262 27.7138C17.9873 27.7138 16.6742 27.7623 15.716 26.8015C14.6124 25.7031 14.8122 23.9394 14.8122 21.2652C14.8122 17.6467 14.4408 15.0407 18.0725 14.8547C18.9069 14.8252 19.1525 14.8154 21.2529 14.8154L21.2823 14.835C24.7725 14.835 27.5108 14.4696 27.6752 18.1006C27.7125 18.9291 27.7211 19.1779 27.7211 21.2751C27.7204 24.5118 27.782 25.8328 26.8081 26.8113Z" fill="url(#paint1_linear_8405_12738)"/>
<path d="M25.4747 18.026C25.9952 18.026 26.4171 17.6041 26.4171 17.0836C26.4171 16.5631 25.9952 16.1411 25.4747 16.1411C24.9542 16.1411 24.5322 16.5631 24.5322 17.0836C24.5322 17.6041 24.9542 18.026 25.4747 18.026Z" fill="url(#paint2_linear_8405_12738)"/>
<circle cx="21.1613" cy="21.1613" r="20.6452" stroke="#404040" stroke-width="1.03226"/>
<defs>
<linearGradient id="paint0_linear_8405_12738" x1="21.2831" y1="17.2397" x2="21.2831" y2="25.306" gradientUnits="userSpaceOnUse">
<stop stop-color="#37AC4E"/>
<stop offset="1" stop-color="#06CA2C"/>
</linearGradient>
<linearGradient id="paint1_linear_8405_12738" x1="21.2782" y1="13.4194" x2="21.2782" y2="29.1383" gradientUnits="userSpaceOnUse">
<stop stop-color="#37AC4E"/>
<stop offset="1" stop-color="#06CA2C"/>
</linearGradient>
<linearGradient id="paint2_linear_8405_12738" x1="25.4747" y1="16.1411" x2="25.4747" y2="18.026" gradientUnits="userSpaceOnUse">
<stop stop-color="#37AC4E"/>
<stop offset="1" stop-color="#06CA2C"/>
</linearGradient>
</defs>
</svg>
