<svg xmlns="http://www.w3.org/2000/svg" width="76" height="76" viewBox="0 0 76 76" fill="none">
    <g filter="url(#filter0_b_7978_36261)">
      <rect width="75.641" height="75.641" rx="37.8205" fill="white" fill-opacity="0.05"/>
      <rect x="0.420228" y="0.420228" width="74.8006" height="74.8006" rx="37.4003" stroke="white" stroke-opacity="0.22" stroke-width="0.840456"/>
      <path d="M51.957 55.6711H22.8516C22.2682 55.6705 21.709 55.4385 21.2965 55.026C20.884 54.6135 20.652 54.0542 20.6514 53.4709V49.6162C20.6514 49.4615 20.7128 49.3132 20.8221 49.2039C20.9315 49.0946 21.0797 49.0331 21.2344 49.0331H53.5742C53.7289 49.0331 53.8771 49.0946 53.9865 49.2039C54.0958 49.3132 54.1572 49.4615 54.1572 49.6162V53.4703C54.1567 54.0538 53.9249 54.6132 53.5124 55.0258C53.0998 55.4384 52.5405 55.6705 51.957 55.6711ZM21.8174 50.1991V53.4703C21.8177 53.7445 21.9267 54.0074 22.1206 54.2013C22.3145 54.3952 22.5774 54.5043 22.8516 54.5045H51.957C52.2312 54.5043 52.4941 54.3952 52.688 54.2013C52.8819 54.0074 52.9909 53.7445 52.9912 53.4703V50.1991H21.8174Z" fill="white"/>
      <path d="M33.9302 31.7217H31.1319C30.9772 31.7217 30.829 31.6602 30.7196 31.5509C30.6103 31.4416 30.5488 31.2933 30.5488 31.1386V29.4813C30.549 29.0915 30.7038 28.718 30.9793 28.4424C31.2547 28.1668 31.6283 28.0118 32.018 28.0115H33.0458C33.4355 28.0118 33.8091 28.1668 34.0847 28.4423C34.3603 28.7179 34.5152 29.0915 34.5155 29.4813V31.1386C34.5155 31.2155 34.5004 31.2914 34.4709 31.3623C34.4415 31.4332 34.3984 31.4976 34.344 31.5517C34.2896 31.6059 34.2251 31.6488 34.154 31.678C34.083 31.7071 34.007 31.722 33.9302 31.7217ZM31.7148 30.5557H33.3472V29.4813C33.3472 29.4007 33.3152 29.3234 33.2583 29.2664C33.2013 29.2095 33.1241 29.1775 33.0435 29.1775H32.0209C31.981 29.1775 31.9415 29.1853 31.9047 29.2006C31.8679 29.2159 31.8345 29.2383 31.8063 29.2665C31.7782 29.2947 31.7559 29.3282 31.7407 29.365C31.7255 29.4019 31.7177 29.4413 31.7177 29.4813L31.7148 30.5557Z" fill="white"/>
      <path d="M43.6724 31.7217H40.874C40.7194 31.7217 40.5711 31.6602 40.4618 31.5509C40.3525 31.4416 40.291 31.2933 40.291 31.1386V29.4813C40.2914 29.0915 40.4463 28.7179 40.7218 28.4423C40.9974 28.1668 41.3711 28.0118 41.7608 28.0115H42.7834C43.173 28.0118 43.5466 28.1668 43.8221 28.4424C44.0975 28.718 44.2523 29.0915 44.2525 29.4813V31.1386C44.2525 31.2928 44.1915 31.4406 44.0828 31.5499C43.9741 31.6591 43.8266 31.7209 43.6724 31.7217ZM41.4571 30.5557H43.0894V29.4813C43.0895 29.4413 43.0817 29.4019 43.0665 29.365C43.0513 29.3282 43.029 29.2947 43.0008 29.2665C42.9727 29.2383 42.9392 29.2159 42.9024 29.2006C42.8656 29.1853 42.8262 29.1775 42.7862 29.1775H41.7637C41.6831 29.1775 41.6059 29.2095 41.5489 29.2664C41.4919 29.3234 41.4599 29.4007 41.4599 29.4813L41.4571 30.5557Z" fill="white"/>
      <path d="M56.7549 32.8871C56.7091 32.8873 56.6635 32.882 56.619 32.8714L47.8263 30.7726C47.7509 30.7557 47.6797 30.7239 47.6167 30.6793C47.5538 30.6346 47.5002 30.5778 47.4594 30.5123C47.4185 30.4467 47.391 30.3737 47.3787 30.2975C47.3663 30.2212 47.3691 30.1433 47.3871 30.0682C47.405 29.9931 47.4377 29.9223 47.4832 29.8599C47.5288 29.7976 47.5863 29.7449 47.6524 29.7049C47.7185 29.6649 47.7919 29.6385 47.8683 29.6271C47.9447 29.6158 48.0226 29.6197 48.0974 29.6386L56.8901 31.7374C57.0286 31.771 57.1501 31.854 57.2315 31.971C57.313 32.088 57.3488 32.2307 57.3321 32.3722C57.3155 32.5138 57.2476 32.6444 57.1412 32.7392C57.0349 32.834 56.8974 32.8867 56.7549 32.8871Z" fill="white"/>
      <path d="M19.6043 35.6074C19.1313 35.6079 18.6741 35.437 18.3176 35.126C17.9611 34.8151 17.7295 34.3854 17.6658 33.9167L17.0473 29.3425C16.8979 28.2161 17.1047 27.0712 17.6387 26.0682C18.1727 25.0653 19.0072 24.2546 20.0252 23.7498C26.2376 20.6495 32.9041 20 37.4037 20C41.9161 20 48.5972 20.65 54.7874 23.7481C55.804 24.2536 56.6372 25.0642 57.1703 26.0666C57.7034 27.069 57.9099 28.2129 57.7607 29.3384L57.1415 33.9149C57.1051 34.1856 57.0122 34.4455 56.869 34.6781C56.7258 34.9106 56.5355 35.1106 56.3102 35.265C56.085 35.4195 55.8299 35.5251 55.5614 35.5749C55.2929 35.6247 55.0169 35.6177 54.7513 35.5543L48.6042 34.0857C48.143 33.9741 47.738 33.6991 47.4641 33.3117C47.1902 32.9243 47.0661 32.4508 47.1146 31.9788L47.4644 28.6557C47.4948 28.3527 47.4124 28.0491 47.2331 27.8031C47.0539 27.5569 46.7903 27.3854 46.4926 27.3212C40.5161 25.978 34.3158 25.978 28.3393 27.3212C28.0418 27.3856 27.7784 27.5572 27.5993 27.8033C27.4201 28.0494 27.3378 28.3528 27.368 28.6557L27.7178 31.9823C27.7664 32.4545 27.6421 32.9283 27.3679 33.3158C27.0936 33.7033 26.688 33.9781 26.2265 34.0892L20.0561 35.5549C19.9081 35.59 19.7564 35.6075 19.6043 35.6074ZM37.4037 21.166C33.0312 21.166 26.5547 21.7956 20.5458 24.794C19.7456 25.1901 19.0895 25.8268 18.6694 26.6147C18.2493 27.4026 18.0863 28.3022 18.2034 29.1875L18.8208 33.7587C18.8354 33.8679 18.8728 33.9729 18.9306 34.0669C18.9884 34.1608 19.0652 34.2415 19.1562 34.3039C19.2471 34.3663 19.3501 34.4089 19.4585 34.4289C19.567 34.449 19.6784 34.4461 19.7856 34.4204L25.9584 32.9507C26.1445 32.9058 26.3082 32.7949 26.4188 32.6386C26.5294 32.4823 26.5796 32.2912 26.56 32.1006L26.2102 28.774C26.1502 28.1868 26.3082 27.5979 26.6541 27.1196C27 26.6412 27.5098 26.3067 28.0863 26.1797C34.2299 24.7993 40.6032 24.7993 46.7468 26.1797C47.324 26.3061 47.8346 26.6406 48.181 27.1192C48.5274 27.5979 48.6855 28.1874 48.6252 28.7752L48.2754 32.0983C48.2556 32.2887 48.3057 32.4799 48.4163 32.6362C48.5268 32.7925 48.6903 32.9034 48.8765 32.9483L55.0218 34.4163C55.1286 34.4417 55.2397 34.4445 55.3477 34.4246C55.4557 34.4047 55.5583 34.3624 55.649 34.3004C55.7397 34.2386 55.8165 34.1584 55.8745 34.0651C55.9324 33.9718 55.9702 33.8674 55.9855 33.7587L56.6041 29.1822C56.7215 28.2977 56.5592 27.3987 56.1401 26.6111C55.721 25.8234 55.0659 25.1866 54.2668 24.7899C48.2772 21.7939 41.7908 21.166 37.4037 21.166Z" fill="white"/>
      <path d="M18.0514 32.8871C17.9089 32.8866 17.7716 32.8339 17.6653 32.7389C17.5591 32.644 17.4912 32.5135 17.4747 32.3719C17.4581 32.2304 17.4939 32.0878 17.5754 31.9709C17.6568 31.854 17.7782 31.7709 17.9167 31.7374L26.8074 29.6136C26.8822 29.5946 26.9601 29.5907 27.0365 29.6021C27.1129 29.6134 27.1863 29.6399 27.2524 29.6798C27.3185 29.7198 27.376 29.7725 27.4215 29.8349C27.4671 29.8972 27.4998 29.968 27.5177 30.0431C27.5357 30.1183 27.5385 30.1962 27.5261 30.2724C27.5137 30.3486 27.4863 30.4217 27.4454 30.4871C27.4046 30.5527 27.351 30.6095 27.2881 30.6541C27.225 30.6988 27.1539 30.7306 27.0785 30.7475L18.1878 32.8713C18.1431 32.8819 18.0973 32.8872 18.0514 32.8871Z" fill="white"/>
      <path d="M53.5742 50.1991H21.2344C21.0798 50.1991 20.9315 50.1377 20.8221 50.0284C20.7128 49.9191 20.6514 49.7707 20.6514 49.6162V44.0497C20.6493 43.3354 20.8451 42.6346 21.2171 42.0248C21.5891 41.4151 22.1228 40.9203 22.7589 40.5955C24.2917 39.8354 25.6167 38.714 26.6197 37.328C27.6227 35.942 28.2737 34.3329 28.5166 32.6393C28.594 32.0606 28.8791 31.5299 29.3189 31.1459C29.7587 30.7619 30.323 30.5508 30.9068 30.5522H43.9006C44.4845 30.5508 45.0488 30.7619 45.4886 31.1459C45.9284 31.5299 46.2135 32.0606 46.2909 32.6393C46.5341 34.3332 47.1856 35.9426 48.1893 37.3286C49.1929 38.7147 50.5186 39.8359 52.0521 40.5955C52.6881 40.9203 53.2218 41.4151 53.5938 42.0248C53.9659 42.6346 54.1617 43.3354 54.1596 44.0497V49.6162C54.1596 49.6929 54.1444 49.7689 54.115 49.8398C54.0856 49.9107 54.0424 49.975 53.988 50.0292C53.9336 50.0834 53.8691 50.1262 53.7981 50.1554C53.727 50.1846 53.651 50.1994 53.5742 50.1991ZM21.8174 49.0331H52.9913V44.0497C52.9946 43.5526 52.8601 43.0644 52.6028 42.6391C52.3456 42.2138 51.9755 41.868 51.5338 41.6402C49.8312 40.7964 48.3594 39.5513 47.2451 38.0121C46.1308 36.4729 45.4076 34.6858 45.1377 32.8049C45.0987 32.5044 44.9516 32.2285 44.7239 32.0285C44.4963 31.8285 44.2037 31.7182 43.9006 31.7182H30.908C30.605 31.7182 30.3124 31.8285 30.0847 32.0285C29.8571 32.2285 29.71 32.5044 29.6709 32.8049C29.4012 34.6856 28.6783 36.4725 27.5646 38.0117C26.4507 39.5509 24.9793 40.7962 23.2772 41.6402C22.8354 41.868 22.4654 42.2138 22.2081 42.6391C21.9509 43.0644 21.8164 43.5526 21.8197 44.0497L21.8174 49.0331Z" fill="white"/>
      <path d="M37.4037 47.2806C36.1186 47.2806 34.8624 46.8996 33.7939 46.1856C32.7254 45.4717 31.8926 44.4569 31.4008 43.2696C30.9091 42.0824 30.7804 40.776 31.0311 39.5156C31.2818 38.2552 31.9006 37.0975 32.8093 36.1888C33.718 35.2801 34.8758 34.6613 36.1361 34.4106C37.3965 34.1598 38.703 34.2885 39.8902 34.7803C41.0774 35.2721 42.0923 36.1049 42.8061 37.1734C43.5201 38.2419 43.9012 39.4981 43.9012 40.7831C43.8993 42.5058 43.2142 44.1574 41.9961 45.3756C40.778 46.5936 39.1264 47.2788 37.4037 47.2806ZM37.4037 35.4517C36.3493 35.4517 35.3184 35.7644 34.4417 36.3502C33.5649 36.936 32.8816 37.7687 32.478 38.7429C32.0745 39.7171 31.969 40.7891 32.1747 41.8233C32.3804 42.8575 32.8882 43.8075 33.6338 44.5531C34.3794 45.2987 35.3294 45.8065 36.3636 46.0122C37.3978 46.218 38.4698 46.1124 39.444 45.7088C40.4182 45.3053 41.2509 44.6219 41.8367 43.7452C42.4226 42.8684 42.7352 41.8377 42.7352 40.7831C42.7341 39.3693 42.1721 38.0136 41.1726 37.0136C40.1731 36.0136 38.8176 35.451 37.4037 35.4494V35.4517Z" fill="white"/>
      <path d="M37.4042 37.8116C37.2497 37.8116 37.1013 37.7503 36.992 37.6409C36.8826 37.5316 36.8213 37.3832 36.8213 37.2287V36.8672C36.8213 36.7126 36.8826 36.5643 36.992 36.455C37.1013 36.3456 37.2497 36.2842 37.4042 36.2842C37.5589 36.2842 37.7071 36.3456 37.8165 36.455C37.9258 36.5643 37.9873 36.7126 37.9873 36.8672V37.2287C37.9873 37.3832 37.9258 37.5316 37.8165 37.6409C37.7071 37.7503 37.5589 37.8116 37.4042 37.8116Z" fill="white"/>
      <path d="M34.8902 38.8523C34.7359 38.8523 34.5879 38.791 34.4786 38.6821L34.2227 38.4268C34.1686 38.3725 34.1256 38.3083 34.0962 38.2376C34.0669 38.1669 34.0518 38.091 34.0518 38.0144C34.0518 37.9379 34.0668 37.8621 34.096 37.7913C34.1254 37.7205 34.1683 37.6562 34.2225 37.6021C34.2766 37.5479 34.3408 37.5049 34.4116 37.4756C34.4823 37.4463 34.5581 37.4312 34.6347 37.4312C34.7113 37.4311 34.7871 37.4462 34.8578 37.4754C34.9286 37.5047 34.9929 37.5476 35.047 37.6018L35.3024 37.8571C35.3839 37.9386 35.4394 38.0425 35.4619 38.1556C35.4844 38.2687 35.4729 38.3859 35.4288 38.4924C35.3846 38.5989 35.3099 38.69 35.214 38.754C35.1182 38.8181 35.0055 38.8523 34.8902 38.8523Z" fill="white"/>
      <path d="M33.8492 41.3662H33.4883C33.3337 41.3662 33.1854 41.3047 33.0761 41.1954C32.9667 41.0861 32.9053 40.9378 32.9053 40.7831C32.9053 40.6286 32.9667 40.4802 33.0761 40.3709C33.1854 40.2616 33.3337 40.2002 33.4883 40.2002H33.8492C34.0037 40.2002 34.1521 40.2616 34.2614 40.3709C34.3707 40.4802 34.4321 40.6286 34.4321 40.7831C34.4321 40.9378 34.3707 41.0861 34.2614 41.1954C34.1521 41.3047 34.0037 41.3662 33.8492 41.3662Z" fill="white"/>
      <path d="M34.6342 44.1359C34.5188 44.136 34.4059 44.1019 34.3101 44.0378C34.2141 43.9737 34.1393 43.8825 34.0951 43.7759C34.0509 43.6693 34.0395 43.552 34.062 43.4388C34.0846 43.3256 34.1404 43.2217 34.2221 43.1402L34.478 42.8848C34.588 42.7787 34.7353 42.72 34.8882 42.7215C35.0411 42.723 35.1872 42.7843 35.2952 42.8925C35.4032 43.0007 35.4645 43.147 35.4657 43.2998C35.4669 43.4527 35.408 43.5999 35.3018 43.7098L35.0464 43.9652C34.9371 44.0745 34.7889 44.1359 34.6342 44.1359Z" fill="white"/>
      <path d="M37.4042 45.2827C37.2497 45.2827 37.1013 45.2213 36.992 45.112C36.8826 45.0027 36.8213 44.8544 36.8213 44.6998V44.3383C36.8213 44.1836 36.8826 44.0354 36.992 43.926C37.1013 43.8167 37.2497 43.7552 37.4042 43.7552C37.5589 43.7552 37.7071 43.8167 37.8165 43.926C37.9258 44.0354 37.9873 44.1836 37.9873 44.3383V44.6998C37.9873 44.8544 37.9258 45.0027 37.8165 45.112C37.7071 45.2213 37.5589 45.2827 37.4042 45.2827Z" fill="white"/>
      <path d="M40.1729 44.136C40.0184 44.136 39.8701 44.0746 39.7608 43.9652L39.5054 43.7098C39.4497 43.6561 39.4053 43.5918 39.3747 43.5207C39.3441 43.4496 39.3279 43.3731 39.3272 43.2957C39.3264 43.2183 39.3411 43.1415 39.3704 43.0698C39.3997 42.9982 39.4429 42.9331 39.4976 42.8783C39.5523 42.8235 39.6174 42.7802 39.689 42.7508C39.7606 42.7214 39.8374 42.7066 39.9148 42.7072C39.9922 42.7079 40.0687 42.7239 40.1399 42.7544C40.211 42.7849 40.2754 42.8293 40.3292 42.8849L40.5852 43.1402C40.6669 43.2218 40.7225 43.3256 40.7451 43.4388C40.7677 43.5521 40.7562 43.6694 40.7121 43.776C40.668 43.8826 40.5932 43.9738 40.4972 44.0378C40.4012 44.102 40.2884 44.1361 40.1729 44.136Z" fill="white"/>
      <path d="M41.3199 41.3662H40.959C40.8044 41.3662 40.6561 41.3047 40.5468 41.1954C40.4374 41.0861 40.376 40.9378 40.376 40.7831C40.376 40.6286 40.4374 40.4802 40.5468 40.3709C40.6561 40.2616 40.8044 40.2002 40.959 40.2002H41.3199C41.4745 40.2002 41.6228 40.2616 41.7321 40.3709C41.8415 40.4802 41.9028 40.6286 41.9028 40.7831C41.9028 40.9378 41.8415 41.0861 41.7321 41.1954C41.6228 41.3047 41.4745 41.3662 41.3199 41.3662Z" fill="white"/>
      <path d="M39.9178 38.8523C39.8025 38.8523 39.6899 38.8181 39.594 38.754C39.4982 38.69 39.4235 38.5989 39.3793 38.4924C39.3352 38.3859 39.3237 38.2687 39.3461 38.1556C39.3687 38.0425 39.4241 37.9386 39.5057 37.8571L39.761 37.6018C39.8152 37.5476 39.8795 37.5047 39.9503 37.4754C40.0209 37.4462 40.0968 37.4311 40.1734 37.4312C40.25 37.4312 40.3258 37.4463 40.3965 37.4756C40.4672 37.5049 40.5315 37.5479 40.5856 37.6021C40.6398 37.6562 40.6827 37.7205 40.712 37.7913C40.7413 37.8621 40.7563 37.9379 40.7562 38.0144C40.7562 38.091 40.7411 38.1669 40.7118 38.2376C40.6825 38.3083 40.6395 38.3725 40.5854 38.4268L40.3294 38.6821C40.2201 38.791 40.0721 38.8523 39.9178 38.8523Z" fill="white"/>
    </g>
    <defs>
      <filter id="filter0_b_7978_36261" x="-9.24501" y="-9.24501" width="94.1307" height="94.1311" filterUnits="userSpaceOnUse" color-interpolation-filters="sRGB">
        <feFlood flood-opacity="0" result="BackgroundImageFix"/>
        <feGaussianBlur in="BackgroundImageFix" stdDeviation="4.62251"/>
        <feComposite in2="SourceAlpha" operator="in" result="effect1_backgroundBlur_7978_36261"/>
        <feBlend mode="normal" in="SourceGraphic" in2="effect1_backgroundBlur_7978_36261" result="shape"/>
      </filter>
    </defs>
  </svg>