<svg xmlns="http://www.w3.org/2000/svg" width="144" height="149" viewBox="0 0 144 149" fill="none">
    <path d="M78.0486 80.8905L79.6588 82.4383L78.0486 80.8905ZM88.4052 85.6413L86.2066 86.0343L88.4052 85.6413ZM63.7398 105.749L63.7375 103.515L63.7398 105.749ZM9.60108 46.9355C9.21592 45.7636 7.95372 45.1259 6.78187 45.511C5.61002 45.8962 4.97228 47.1584 5.35744 48.3302L9.60108 46.9355ZM143.066 98.1367C143.929 97.2552 143.914 95.8411 143.032 94.9782C142.151 94.1153 140.736 94.1304 139.874 95.0119L143.066 98.1367ZM94.2859 114.619L93.5803 116.738L94.2859 114.619ZM6.96564 47.1157L7.52449 44.9533C6.33354 44.6455 5.1179 45.3586 4.80542 46.5484L6.96564 47.1157ZM2.16997 56.5826C1.85662 57.7756 2.56976 58.9968 3.76282 59.3101C4.95587 59.6235 6.17706 58.9104 6.49041 57.7173L2.16997 56.5826ZM15.6692 51.6719C16.8635 51.9806 18.0819 51.2626 18.3905 50.0683C18.6992 48.874 17.9812 47.6557 16.7869 47.347L15.6692 51.6719ZM79.6588 82.4383C80.5002 81.563 81.218 81.2605 81.7446 81.1821C82.2704 81.1038 82.8291 81.2152 83.4194 81.5643C84.6763 82.3076 85.8474 84.0251 86.2066 86.0343L90.6039 85.2483C90.0623 82.2185 88.2781 79.248 85.6933 77.7194C84.3628 76.9326 82.779 76.5119 81.0869 76.7638C79.3955 77.0156 77.8199 77.9055 76.4384 79.3427L79.6588 82.4383ZM86.2066 86.0343C86.5342 87.867 85.889 90.0705 84.1751 92.4632C82.479 94.831 79.8972 97.1428 76.8905 99.0497L79.2829 102.822C82.6471 100.688 85.6989 98.0068 87.8065 95.0644C89.8964 92.1469 91.225 88.7233 90.6039 85.2483L86.2066 86.0343ZM76.8905 99.0497C72.5547 101.799 67.6507 103.511 63.7375 103.515L63.7421 107.982C68.7665 107.977 74.4964 105.858 79.2829 102.822L76.8905 99.0497ZM63.7375 103.515C46.3891 103.533 32.9071 89.9188 23.5536 75.4904C18.9289 68.3564 15.4342 61.2049 13.0942 55.8277C11.9255 53.1423 11.0483 50.9073 10.4649 49.3486C10.1732 48.5695 9.95519 47.9599 9.81109 47.5482C9.73905 47.3423 9.6855 47.186 9.65048 47.0826C9.63297 47.031 9.6201 46.9926 9.61186 46.9679C9.60775 46.9556 9.60479 46.9467 9.60299 46.9412C9.60209 46.9385 9.60148 46.9367 9.60116 46.9357C9.601 46.9352 9.60098 46.9352 9.6009 46.9349C9.60095 46.9351 9.60108 46.9355 7.47926 47.6329C5.35744 48.3302 5.35771 48.3311 5.35805 48.3321C5.35826 48.3327 5.35867 48.334 5.3591 48.3353C5.35995 48.3379 5.36109 48.3413 5.36252 48.3456C5.36539 48.3543 5.36943 48.3665 5.37464 48.3821C5.38506 48.4133 5.40017 48.4583 5.41996 48.5167C5.45953 48.6335 5.51785 48.8037 5.59487 49.0237C5.74889 49.4638 5.9778 50.1036 6.28135 50.9146C6.88833 52.5361 7.79454 54.8442 8.99824 57.6102C11.4029 63.1357 15.0083 70.5205 19.8054 77.9203C29.2955 92.5596 43.9438 108.003 63.7421 107.982L63.7375 103.515ZM141.47 96.5743C139.874 95.0119 139.874 95.0115 139.874 95.0112C139.874 95.0113 139.874 95.0111 139.874 95.0112C139.874 95.0113 139.874 95.0119 139.873 95.0128C139.871 95.0146 139.868 95.018 139.863 95.0228C139.853 95.0325 139.838 95.0482 139.816 95.0696C139.774 95.1124 139.708 95.1781 139.619 95.2651C139.442 95.439 139.175 95.6975 138.825 96.0265C138.125 96.6848 137.094 97.6239 135.785 98.7311C133.164 100.949 129.45 103.823 125.073 106.464C116.203 111.816 105.156 115.884 94.9915 112.5L93.5803 116.738C105.679 120.767 118.224 115.813 127.38 110.289C132.016 107.492 135.924 104.465 138.671 102.141C140.046 100.978 141.136 99.9858 141.885 99.2808C142.26 98.9282 142.551 98.647 142.75 98.4516C142.849 98.3539 142.926 98.2776 142.979 98.2246C143.005 98.198 143.026 98.1773 143.04 98.1625C143.048 98.1552 143.053 98.1493 143.058 98.145C143.06 98.1428 143.061 98.1411 143.063 98.1397C143.063 98.139 143.064 98.1382 143.065 98.1379C143.065 98.1372 143.066 98.1367 141.47 96.5743ZM94.9915 112.5C88.4729 110.329 83.1547 105.389 80.0332 99.8407L76.1401 102.031C79.7247 108.402 85.8618 114.168 93.5803 116.738L94.9915 112.5ZM80.0332 99.8407C76.1739 92.9811 76.0886 86.1525 79.6588 82.4383L76.4384 79.3427C70.8163 85.1914 71.9083 94.5094 76.1401 102.031L80.0332 99.8407ZM4.80542 46.5484L2.16997 56.5826L6.49041 57.7173L9.12586 47.6831L4.80542 46.5484ZM6.40679 49.2782L15.6692 51.6719L16.7869 47.347L7.52449 44.9533L6.40679 49.2782Z" fill="url(#paint0_linear_7978_37557)"/>
    <defs>
      <linearGradient id="paint0_linear_7978_37557" x1="104.161" y1="48.7869" x2="38.0797" y2="100.378" gradientUnits="userSpaceOnUse">
        <stop stop-color="#37AC4E"/>
        <stop offset="1" stop-color="#06CA2C"/>
      </linearGradient>
    </defs>
  </svg>