<svg width="79" height="118" viewBox="0 0 79 118" fill="none" xmlns="http://www.w3.org/2000/svg">
<path d="M23.2293 56.7852C21.1118 58.7362 21.0015 61.1956 21.1934 63.4742C21.5023 66.6401 22.1528 69.8067 23.1053 72.7926C27.8533 86.4316 37.0772 96.2297 49.9115 102.568C53.1803 104.168 56.7322 105.325 60.544 106.805C57.8807 109.561 53.8389 110.338 50.9348 113.034C52.4386 113.843 53.6865 113.302 54.733 112.881C59.0198 111.136 63.327 109.311 67.5743 107.385C69.6074 106.442 70.0334 105.434 68.9556 103.618C66.7605 99.8024 63.6169 97.0336 59.5847 95.4119C59.4241 95.3712 59.122 95.552 58.6389 95.7727C58.6443 99.4622 63.2644 99.7747 64.115 103.164C58.2482 103.05 53.194 100.741 48.4228 97.9883C43.4311 95.0944 38.8028 91.7779 35.0428 87.3949C31.3426 83.1127 28.7298 78.2483 26.4599 73.0418C24.0893 67.8957 23.1463 62.5107 23.2293 56.7852Z" fill="white"/>
<rect x="0.755421" y="1.29253" width="47.7823" height="47.7823" rx="23.8912" fill="white"/>
<rect x="0.755421" y="1.29253" width="47.7823" height="47.7823" rx="23.8912" stroke="#DCDCDC" stroke-width="0.979592"/>
<path d="M36.8637 35.1919V16.8713L29.7475 13V40.8639L36.8637 35.1919ZM20.7009 15.422L26.4348 17.1199V34.7787L20.7009 37.2834V15.422ZM17.3886 19.0243L13.0209 18.3203L13 34.1361L17.3886 32.9767V19.0243Z" fill="url(#paint0_linear_7978_37497)"/>
<defs>
<linearGradient id="paint0_linear_7978_37497" x1="24.9319" y1="13" x2="24.9319" y2="40.8639" gradientUnits="userSpaceOnUse">
<stop stop-color="#37AC4E"/>
<stop offset="1" stop-color="#06CA2C"/>
</linearGradient>
</defs>
</svg>
